<svg version="1.1" viewBox="0.0 0.0 960.0 720.0" fill="none" stroke="none" stroke-linecap="square" stroke-miterlimit="10" xmlns:xlink="http://www.w3.org/1999/xlink" xmlns="http://www.w3.org/2000/svg"><clipPath id="p.0"><path d="m0 0l960.0 0l0 720.0l-960.0 0l0 -720.0z" clip-rule="nonzero"/></clipPath><g clip-path="url(#p.0)"><path fill="#000000" fill-opacity="0.0" d="m0 0l960.0 0l0 720.0l-960.0 0z" fill-rule="evenodd"/><path fill="#c9daf8" d="m263.68503 270.0l0 0c0 -110.77005 96.8475 -200.56693 216.31497 -200.56693l0 0c119.46747 0 216.31494 89.79688 216.31494 200.56693l0 0c0 110.77005 -96.84747 200.56693 -216.31494 200.56693l0 0c-119.46747 0 -216.31497 -89.796875 -216.31497 -200.56693z" fill-rule="evenodd"/><path stroke="#595959" stroke-width="1.0" stroke-linejoin="round" stroke-linecap="butt" d="m263.68503 270.0l0 0c0 -110.77005 96.8475 -200.56693 216.31497 -200.56693l0 0c119.46747 0 216.31494 89.79688 216.31494 200.56693l0 0c0 110.77005 -96.84747 200.56693 -216.31494 200.56693l0 0c-119.46747 0 -216.31497 -89.796875 -216.31497 -200.56693z" fill-rule="evenodd"/><path fill="#d9ead3" d="m317.3701 263.17322l0 0c0 -76.49361 72.81189 -138.50394 162.62991 -138.50394l0 0c89.818054 0 162.62994 62.010323 162.62994 138.50394l0 0c0 76.49362 -72.81189 138.50394 -162.62994 138.50394l0 0c-89.81802 0 -162.62991 -62.010315 -162.62991 -138.50394z" fill-rule="evenodd"/><path stroke="#595959" stroke-width="1.0" stroke-linejoin="round" stroke-linecap="butt" d="m317.3701 263.17322l0 0c0 -76.49361 72.81189 -138.50394 162.62991 -138.50394l0 0c89.818054 0 162.62994 62.010323 162.62994 138.50394l0 0c0 76.49362 -72.81189 138.50394 -162.62994 138.50394l0 0c-89.81802 0 -162.62991 -62.010315 -162.62991 -138.50394z" fill-rule="evenodd"/><path fill="#f4cccc" d="m381.85828 263.17322l0 0c0 -44.21756 43.939545 -80.06299 98.14172 -80.06299l0 0c54.20221 0 98.14172 35.84543 98.14172 80.06299l0 0c0 44.21759 -43.939514 80.06299 -98.14172 80.06299l0 0c-54.20218 0 -98.14172 -35.845398 -98.14172 -80.06299z" fill-rule="evenodd"/><path stroke="#595959" stroke-width="1.0" stroke-linejoin="round" stroke-linecap="butt" d="m381.85828 263.17322l0 0c0 -44.21756 43.939545 -80.06299 98.14172 -80.06299l0 0c54.20221 0 98.14172 35.84543 98.14172 80.06299l0 0c0 44.21759 -43.939514 80.06299 -98.14172 80.06299l0 0c-54.20218 0 -98.14172 -35.845398 -98.14172 -80.06299z" fill-rule="evenodd"/><path fill="#fff2cc" d="m428.92914 263.17322l0 0c0 -20.604126 22.865204 -37.307083 51.07086 -37.307083l0 0c28.205658 0 51.07086 16.702957 51.07086 37.307083l0 0c0 20.604156 -22.865204 37.3071 -51.07086 37.3071l0 0c-28.205658 0 -51.07086 -16.702942 -51.07086 -37.3071z" fill-rule="evenodd"/><path stroke="#595959" stroke-width="1.0" stroke-linejoin="round" stroke-linecap="butt" d="m428.92914 263.17322l0 0c0 -20.604126 22.865204 -37.307083 51.07086 -37.307083l0 0c28.205658 0 51.07086 16.702957 51.07086 37.307083l0 0c0 20.604156 -22.865204 37.3071 -51.07086 37.3071l0 0c-28.205658 0 -51.07086 -16.702942 -51.07086 -37.3071z" fill-rule="evenodd"/><path fill="#000000" fill-opacity="0.0" d="m441.48032 246.14961l77.0394 0l0 34.047226l-77.0394 0z" fill-rule="evenodd"/><path fill="#000000" d="m461.0411 257.47073l0 1.703125l-5.125 0l0 3.21875l4.03125 0l0 1.65625l-4.03125 0l0 3.265625l5.125 0l0 1.71875l-7.296875 0l0 -11.5625l7.296875 0zm1.7536316 11.5625l0 -8.203125l1.203125 0q0.375 0 0.5 0.359375l0.140625 0.640625q0.25 -0.25 0.515625 -0.453125q0.28125 -0.21875 0.578125 -0.359375q0.3125 -0.15625 0.671875 -0.234375q0.359375 -0.078125 0.765625 -0.078125q0.671875 0 1.1875 0.234375q0.53125 0.21875 0.875 0.625q0.34375 0.40625 0.515625 0.984375q0.1875 0.578125 0.1875 1.265625l0 5.21875l-1.96875 0l0 -5.21875q0 -0.75 -0.359375 -1.15625q-0.34375 -0.421875 -1.03125 -0.421875q-0.515625 0 -0.96875 0.234375q-0.4375 0.234375 -0.84375 0.625l0 5.9375l-1.96875 0zm11.783386 0.125q-1.0625 0 -1.640625 -0.59375q-0.578125 -0.609375 -0.578125 -1.671875l0 -4.59375l-0.828125 0q-0.15625 0 -0.28125 -0.09375q-0.109375 -0.109375 -0.109375 -0.3125l0 -0.78125l1.3125 -0.21875l0.421875 -2.25q0.03125 -0.15625 0.140625 -0.234375q0.125 -0.09375 0.296875 -0.09375l1.03125 0l0 2.578125l2.15625 0l0 1.40625l-2.15625 0l0 4.453125q0 0.390625 0.1875 0.609375q0.1875 0.203125 0.515625 0.203125q0.1875 0 0.296875 -0.03125q0.125 -0.046875 0.21875 -0.09375q0.09375 -0.046875 0.15625 -0.09375q0.078125 -0.046875 0.15625 -0.046875q0.09375 0 0.140625 0.046875q0.0625 0.046875 0.125 0.125l0.59375 0.96875q-0.4375 0.359375 -1.0 0.546875q-0.546875 0.171875 -1.15625 0.171875zm5.598175 -8.328125l0 8.203125l-1.96875 0l0 -8.203125l1.96875 0zm0.296875 -2.390625q0 0.25 -0.109375 0.484375q-0.09375 0.21875 -0.265625 0.390625q-0.171875 0.15625 -0.40625 0.265625q-0.234375 0.09375 -0.5 0.09375q-0.25 0 -0.484375 -0.09375q-0.21875 -0.109375 -0.390625 -0.265625q-0.171875 -0.171875 -0.28125 -0.390625q-0.09375 -0.234375 -0.09375 -0.484375q0 -0.265625 0.09375 -0.5q0.109375 -0.234375 0.28125 -0.390625q0.171875 -0.171875 0.390625 -0.265625q0.234375 -0.109375 0.484375 -0.109375q0.265625 0 0.5 0.109375q0.234375 0.09375 0.40625 0.265625q0.171875 0.15625 0.265625 0.390625q0.109375 0.234375 0.109375 0.5zm4.6328125 10.71875q-1.0625 0 -1.640625 -0.59375q-0.578125 -0.609375 -0.578125 -1.671875l0 -4.59375l-0.828125 0q-0.15625 0 -0.28125 -0.09375q-0.109375 -0.109375 -0.109375 -0.3125l0 -0.78125l1.3125 -0.21875l0.421875 -2.25q0.03125 -0.15625 0.140625 -0.234375q0.125 -0.09375 0.296875 -0.09375l1.03125 0l0 2.578125l2.15625 0l0 1.40625l-2.15625 0l0 4.453125q0 0.390625 0.1875 0.609375q0.1875 0.203125 0.515625 0.203125q0.1875 0 0.296875 -0.03125q0.125 -0.046875 0.21875 -0.09375q0.09375 -0.046875 0.15625 -0.09375q0.078125 -0.046875 0.15625 -0.046875q0.09375 0 0.140625 0.046875q0.0625 0.046875 0.125 0.125l0.59375 0.96875q-0.4375 0.359375 -1.0 0.546875q-0.546875 0.171875 -1.15625 0.171875zm5.598175 -8.328125l0 8.203125l-1.96875 0l0 -8.203125l1.96875 0zm0.296875 -2.390625q0 0.25 -0.109375 0.484375q-0.09375 0.21875 -0.265625 0.390625q-0.171875 0.15625 -0.40625 0.265625q-0.234375 0.09375 -0.5 0.09375q-0.25 0 -0.484375 -0.09375q-0.21875 -0.109375 -0.390625 -0.265625q-0.171875 -0.171875 -0.28125 -0.390625q-0.09375 -0.234375 -0.09375 -0.484375q0 -0.265625 0.09375 -0.5q0.109375 -0.234375 0.28125 -0.390625q0.171875 -0.171875 0.390625 -0.265625q0.234375 -0.109375 0.484375 -0.109375q0.265625 0 0.5 0.109375q0.234375 0.09375 0.40625 0.265625q0.171875 0.15625 0.265625 0.390625q0.109375 0.234375 0.109375 0.5zm5.3359375 2.265625q0.765625 0 1.421875 0.25q0.65625 0.234375 1.125 0.71875q0.46875 0.46875 0.734375 1.171875q0.265625 0.6875 0.265625 1.578125q0 0.21875 -0.03125 0.375q-0.015625 0.140625 -0.0625 0.234375q-0.046875 0.078125 -0.140625 0.109375q-0.078125 0.03125 -0.21875 0.03125l-5.078125 0q0.09375 1.265625 0.6875 1.859375q0.59375 0.59375 1.5625 0.59375q0.484375 0 0.828125 -0.109375q0.34375 -0.109375 0.609375 -0.25q0.265625 -0.140625 0.453125 -0.25q0.203125 -0.109375 0.375 -0.109375q0.125 0 0.203125 0.046875q0.09375 0.046875 0.171875 0.140625l0.5625 0.71875q-0.328125 0.375 -0.734375 0.640625q-0.40625 0.265625 -0.859375 0.421875q-0.4375 0.140625 -0.90625 0.203125q-0.453125 0.078125 -0.875 0.078125q-0.859375 0 -1.59375 -0.28125q-0.734375 -0.296875 -1.28125 -0.84375q-0.546875 -0.5625 -0.859375 -1.375q-0.3125 -0.828125 -0.3125 -1.90625q0 -0.84375 0.265625 -1.578125q0.28125 -0.734375 0.78125 -1.28125q0.515625 -0.5625 1.25 -0.875q0.734375 -0.3125 1.65625 -0.3125zm0.03125 1.40625q-0.859375 0 -1.359375 0.5q-0.484375 0.484375 -0.609375 1.375l3.703125 0q0 -0.390625 -0.109375 -0.71875q-0.09375 -0.34375 -0.3125 -0.59375q-0.21875 -0.265625 -0.546875 -0.40625q-0.328125 -0.15625 -0.765625 -0.15625zm9.98938 0.3125q-0.078125 0.125 -0.171875 0.1875q-0.078125 0.046875 -0.21875 0.046875q-0.140625 0 -0.3125 -0.078125q-0.15625 -0.078125 -0.375 -0.171875q-0.21875 -0.109375 -0.5 -0.1875q-0.265625 -0.078125 -0.640625 -0.078125q-0.578125 0 -0.921875 0.25q-0.328125 0.234375 -0.328125 0.640625q0 0.265625 0.171875 0.453125q0.171875 0.171875 0.453125 0.3125q0.28125 0.125 0.640625 0.234375q0.359375 0.109375 0.734375 0.25q0.375 0.125 0.734375 0.296875q0.359375 0.15625 0.640625 0.40625q0.296875 0.25 0.46875 0.609375q0.171875 0.34375 0.171875 0.84375q0 0.578125 -0.21875 1.078125q-0.21875 0.5 -0.640625 0.875q-0.40625 0.359375 -1.03125 0.5625q-0.609375 0.203125 -1.390625 0.203125q-0.421875 0 -0.828125 -0.078125q-0.40625 -0.078125 -0.78125 -0.203125q-0.375 -0.140625 -0.6875 -0.3125q-0.3125 -0.1875 -0.546875 -0.40625l0.453125 -0.75q0.078125 -0.140625 0.203125 -0.203125q0.125 -0.078125 0.296875 -0.078125q0.1875 0 0.34375 0.109375q0.171875 0.09375 0.390625 0.21875q0.21875 0.109375 0.5 0.21875q0.296875 0.109375 0.75 0.109375q0.34375 0 0.59375 -0.078125q0.265625 -0.09375 0.421875 -0.234375q0.171875 -0.140625 0.234375 -0.3125q0.078125 -0.1875 0.078125 -0.375q0 -0.28125 -0.171875 -0.46875q-0.171875 -0.1875 -0.453125 -0.3125q-0.28125 -0.140625 -0.65625 -0.25q-0.359375 -0.109375 -0.734375 -0.234375q-0.375 -0.125 -0.75 -0.296875q-0.359375 -0.171875 -0.640625 -0.4375q-0.28125 -0.265625 -0.453125 -0.640625q-0.171875 -0.390625 -0.171875 -0.9375q0 -0.5 0.1875 -0.953125q0.203125 -0.46875 0.59375 -0.796875q0.390625 -0.34375 0.96875 -0.546875q0.578125 -0.203125 1.34375 -0.203125q0.84375 0 1.53125 0.28125q0.703125 0.265625 1.171875 0.734375l-0.453125 0.703125z" fill-rule="nonzero"/><path fill="#000000" fill-opacity="0.0" d="m441.48032 188.73753l85.29135 0l0 34.04724l-85.29135 0z" fill-rule="evenodd"/><path fill="#000000" d="m459.0149 209.10803q0.53125 0 0.9375 -0.171875q0.40625 -0.171875 0.6875 -0.484375q0.28125 -0.3125 0.4375 -0.75q0.15625 -0.453125 0.15625 -1.0l0 -5.78125l1.78125 0l0 5.78125q0 0.859375 -0.28125 1.59375q-0.265625 0.71875 -0.796875 1.25q-0.515625 0.53125 -1.25 0.828125q-0.734375 0.296875 -1.671875 0.296875q-0.921875 0 -1.65625 -0.296875q-0.734375 -0.296875 -1.265625 -0.828125q-0.515625 -0.53125 -0.796875 -1.25q-0.265625 -0.734375 -0.265625 -1.59375l0 -5.78125l1.796875 0l0 5.765625q0 0.5625 0.140625 1.015625q0.15625 0.4375 0.4375 0.75q0.28125 0.3125 0.6875 0.484375q0.40625 0.171875 0.921875 0.171875zm9.79657 -4.046875q-0.0625 0.109375 -0.140625 0.15625q-0.078125 0.03125 -0.1875 0.03125q-0.125 0 -0.265625 -0.0625q-0.125 -0.0625 -0.3125 -0.140625q-0.171875 -0.09375 -0.40625 -0.15625q-0.21875 -0.078125 -0.546875 -0.078125q-0.484375 0 -0.765625 0.21875q-0.265625 0.203125 -0.265625 0.53125q0 0.21875 0.140625 0.375q0.140625 0.140625 0.375 0.265625q0.234375 0.109375 0.53125 0.203125q0.3125 0.078125 0.625 0.1875q0.3125 0.109375 0.609375 0.25q0.296875 0.140625 0.53125 0.34375q0.234375 0.203125 0.375 0.5q0.15625 0.296875 0.15625 0.703125q0 0.5 -0.1875 0.921875q-0.171875 0.40625 -0.53125 0.71875q-0.34375 0.296875 -0.859375 0.46875q-0.5 0.171875 -1.15625 0.171875q-0.359375 0 -0.703125 -0.0625q-0.328125 -0.0625 -0.640625 -0.171875q-0.3125 -0.125 -0.578125 -0.265625q-0.25 -0.15625 -0.453125 -0.34375l0.375 -0.625q0.078125 -0.109375 0.171875 -0.171875q0.109375 -0.0625 0.265625 -0.0625q0.140625 0 0.28125 0.09375q0.140625 0.078125 0.3125 0.1875q0.1875 0.09375 0.421875 0.1875q0.25 0.078125 0.625 0.078125q0.296875 0 0.5 -0.0625q0.203125 -0.078125 0.34375 -0.1875q0.140625 -0.109375 0.203125 -0.265625q0.0625 -0.15625 0.0625 -0.3125q0 -0.234375 -0.140625 -0.390625q-0.140625 -0.15625 -0.390625 -0.265625q-0.234375 -0.109375 -0.53125 -0.203125q-0.296875 -0.09375 -0.625 -0.1875q-0.3125 -0.109375 -0.625 -0.25q-0.296875 -0.15625 -0.53125 -0.375q-0.234375 -0.21875 -0.375 -0.53125q-0.140625 -0.328125 -0.140625 -0.78125q0 -0.421875 0.15625 -0.796875q0.171875 -0.375 0.484375 -0.65625q0.328125 -0.296875 0.8125 -0.453125q0.484375 -0.171875 1.125 -0.171875q0.703125 0 1.28125 0.234375q0.578125 0.21875 0.96875 0.609375l-0.375 0.59375zm4.5899963 -1.4375q0.65625 0 1.1875 0.203125q0.546875 0.203125 0.9375 0.609375q0.390625 0.390625 0.609375 0.96875q0.21875 0.578125 0.21875 1.3125q0 0.1875 -0.015625 0.3125q-0.015625 0.125 -0.0625 0.203125q-0.03125 0.0625 -0.109375 0.09375q-0.078125 0.015625 -0.1875 0.015625l-4.21875 0q0.0625 1.0625 0.5625 1.5625q0.5 0.484375 1.3125 0.484375q0.390625 0 0.671875 -0.09375q0.296875 -0.09375 0.515625 -0.203125q0.21875 -0.125 0.375 -0.203125q0.171875 -0.09375 0.328125 -0.09375q0.09375 0 0.171875 0.046875q0.078125 0.03125 0.125 0.09375l0.484375 0.609375q-0.28125 0.3125 -0.625 0.53125q-0.328125 0.21875 -0.703125 0.359375q-0.375 0.125 -0.765625 0.171875q-0.375 0.046875 -0.734375 0.046875q-0.703125 0 -1.328125 -0.234375q-0.609375 -0.234375 -1.0625 -0.6875q-0.453125 -0.46875 -0.71875 -1.15625q-0.25 -0.6875 -0.25 -1.578125q0 -0.703125 0.21875 -1.3125q0.234375 -0.625 0.65625 -1.078125q0.421875 -0.453125 1.03125 -0.71875q0.609375 -0.265625 1.375 -0.265625zm0.03125 1.171875q-0.71875 0 -1.125 0.40625q-0.40625 0.40625 -0.515625 1.15625l3.09375 0q0 -0.328125 -0.09375 -0.609375q-0.078125 -0.28125 -0.265625 -0.484375q-0.171875 -0.21875 -0.453125 -0.34375q-0.265625 -0.125 -0.640625 -0.125zm13.555542 3.5q0.15625 0 0.25 0.109375l0.71875 0.765625q-0.59375 0.71875 -1.453125 1.109375q-0.859375 0.390625 -2.046875 0.390625q-1.078125 0 -1.9375 -0.359375q-0.859375 -0.375 -1.46875 -1.03125q-0.59375 -0.65625 -0.921875 -1.5625q-0.328125 -0.90625 -0.328125 -1.96875q0 -1.09375 0.359375 -1.984375q0.375 -0.90625 1.015625 -1.5625q0.65625 -0.65625 1.5625 -1.015625q0.921875 -0.375 2.015625 -0.375q1.078125 0 1.875 0.34375q0.796875 0.34375 1.375 0.921875l-0.59375 0.828125q-0.0625 0.078125 -0.140625 0.140625q-0.078125 0.0625 -0.234375 0.0625q-0.15625 0 -0.3125 -0.125q-0.15625 -0.125 -0.40625 -0.265625q-0.25 -0.140625 -0.625 -0.25q-0.375 -0.125 -0.953125 -0.125q-0.671875 0 -1.25 0.234375q-0.5625 0.234375 -0.984375 0.6875q-0.40625 0.4375 -0.640625 1.0625q-0.21875 0.625 -0.21875 1.421875q0 0.8125 0.21875 1.453125q0.234375 0.625 0.625 1.0625q0.390625 0.421875 0.921875 0.65625q0.546875 0.234375 1.15625 0.234375q0.359375 0 0.65625 -0.046875q0.296875 -0.046875 0.546875 -0.125q0.25 -0.09375 0.46875 -0.21875q0.234375 -0.140625 0.453125 -0.34375q0.0625 -0.0625 0.140625 -0.09375q0.078125 -0.03125 0.15625 -0.03125zm7.577118 2.265625l-0.734375 0q-0.234375 0 -0.375 -0.0625q-0.125 -0.078125 -0.1875 -0.296875l-0.15625 -0.484375q-0.25 0.234375 -0.5 0.421875q-0.25 0.171875 -0.53125 0.296875q-0.265625 0.109375 -0.5625 0.171875q-0.296875 0.0625 -0.65625 0.0625q-0.4375 0 -0.8125 -0.109375q-0.359375 -0.125 -0.625 -0.359375q-0.265625 -0.234375 -0.40625 -0.578125q-0.140625 -0.34375 -0.140625 -0.8125q0 -0.375 0.203125 -0.75q0.203125 -0.390625 0.671875 -0.6875q0.46875 -0.296875 1.25 -0.5q0.796875 -0.203125 1.953125 -0.234375l0 -0.390625q0 -0.6875 -0.296875 -1.015625q-0.28125 -0.34375 -0.828125 -0.34375q-0.40625 0 -0.671875 0.09375q-0.265625 0.09375 -0.46875 0.21875q-0.1875 0.109375 -0.359375 0.203125q-0.15625 0.09375 -0.359375 0.09375q-0.171875 0 -0.296875 -0.078125q-0.109375 -0.09375 -0.1875 -0.21875l-0.296875 -0.53125q1.1875 -1.078125 2.84375 -1.078125q0.609375 0 1.078125 0.203125q0.46875 0.1875 0.78125 0.546875q0.328125 0.34375 0.5 0.84375q0.171875 0.484375 0.171875 1.0625l0 4.3125zm-3.203125 -1.03125q0.265625 0 0.46875 -0.046875q0.21875 -0.046875 0.40625 -0.140625q0.1875 -0.09375 0.359375 -0.21875q0.1875 -0.140625 0.359375 -0.328125l0 -1.15625q-0.71875 0.03125 -1.203125 0.125q-0.46875 0.09375 -0.765625 0.234375q-0.296875 0.140625 -0.421875 0.328125q-0.125 0.1875 -0.125 0.40625q0 0.421875 0.25 0.609375q0.265625 0.1875 0.671875 0.1875zm8.883484 -4.46875q-0.0625 0.109375 -0.140625 0.15625q-0.078125 0.03125 -0.1875 0.03125q-0.125 0 -0.265625 -0.0625q-0.125 -0.0625 -0.3125 -0.140625q-0.171875 -0.09375 -0.40625 -0.15625q-0.21875 -0.078125 -0.546875 -0.078125q-0.484375 0 -0.765625 0.21875q-0.265625 0.203125 -0.265625 0.53125q0 0.21875 0.140625 0.375q0.140625 0.140625 0.375 0.265625q0.234375 0.109375 0.53125 0.203125q0.3125 0.078125 0.625 0.1875q0.3125 0.109375 0.609375 0.25q0.296875 0.140625 0.53125 0.34375q0.234375 0.203125 0.375 0.5q0.15625 0.296875 0.15625 0.703125q0 0.5 -0.1875 0.921875q-0.171875 0.40625 -0.53125 0.71875q-0.34375 0.296875 -0.859375 0.46875q-0.5 0.171875 -1.15625 0.171875q-0.359375 0 -0.703125 -0.0625q-0.328125 -0.0625 -0.640625 -0.171875q-0.3125 -0.125 -0.578125 -0.265625q-0.25 -0.15625 -0.453125 -0.34375l0.375 -0.625q0.078125 -0.109375 0.171875 -0.171875q0.109375 -0.0625 0.265625 -0.0625q0.140625 0 0.28125 0.09375q0.140625 0.078125 0.3125 0.1875q0.1875 0.09375 0.421875 0.1875q0.25 0.078125 0.625 0.078125q0.296875 0 0.5 -0.0625q0.203125 -0.078125 0.34375 -0.1875q0.140625 -0.109375 0.203125 -0.265625q0.0625 -0.15625 0.0625 -0.3125q0 -0.234375 -0.140625 -0.390625q-0.140625 -0.15625 -0.390625 -0.265625q-0.234375 -0.109375 -0.53125 -0.203125q-0.296875 -0.09375 -0.625 -0.1875q-0.3125 -0.109375 -0.625 -0.25q-0.296875 -0.15625 -0.53125 -0.375q-0.234375 -0.21875 -0.375 -0.53125q-0.140625 -0.328125 -0.140625 -0.78125q0 -0.421875 0.15625 -0.796875q0.171875 -0.375 0.484375 -0.65625q0.328125 -0.296875 0.8125 -0.453125q0.484375 -0.171875 1.125 -0.171875q0.703125 0 1.28125 0.234375q0.578125 0.21875 0.96875 0.609375l-0.375 0.59375zm4.5899963 -1.4375q0.65625 0 1.1875 0.203125q0.546875 0.203125 0.9375 0.609375q0.390625 0.390625 0.609375 0.96875q0.21875 0.578125 0.21875 1.3125q0 0.1875 -0.015625 0.3125q-0.015625 0.125 -0.0625 0.203125q-0.03125 0.0625 -0.109375 0.09375q-0.078125 0.015625 -0.1875 0.015625l-4.21875 0q0.0625 1.0625 0.5625 1.5625q0.5 0.484375 1.3125 0.484375q0.390625 0 0.671875 -0.09375q0.296875 -0.09375 0.515625 -0.203125q0.21875 -0.125 0.375 -0.203125q0.171875 -0.09375 0.328125 -0.09375q0.09375 0 0.171875 0.046875q0.078125 0.03125 0.125 0.09375l0.484375 0.609375q-0.28125 0.3125 -0.625 0.53125q-0.328125 0.21875 -0.703125 0.359375q-0.375 0.125 -0.765625 0.171875q-0.375 0.046875 -0.734375 0.046875q-0.703125 0 -1.328125 -0.234375q-0.609375 -0.234375 -1.0625 -0.6875q-0.453125 -0.46875 -0.71875 -1.15625q-0.25 -0.6875 -0.25 -1.578125q0 -0.703125 0.21875 -1.3125q0.234375 -0.625 0.65625 -1.078125q0.421875 -0.453125 1.03125 -0.71875q0.609375 -0.265625 1.375 -0.265625zm0.03125 1.171875q-0.71875 0 -1.125 0.40625q-0.40625 0.40625 -0.515625 1.15625l3.09375 0q0 -0.328125 -0.09375 -0.609375q-0.078125 -0.28125 -0.265625 -0.484375q-0.171875 -0.21875 -0.453125 -0.34375q-0.265625 -0.125 -0.640625 -0.125zm8.326996 0.265625q-0.0625 0.109375 -0.140625 0.15625q-0.078125 0.03125 -0.1875 0.03125q-0.125 0 -0.265625 -0.0625q-0.125 -0.0625 -0.3125 -0.140625q-0.171875 -0.09375 -0.40625 -0.15625q-0.21875 -0.078125 -0.546875 -0.078125q-0.484375 0 -0.765625 0.21875q-0.265625 0.203125 -0.265625 0.53125q0 0.21875 0.140625 0.375q0.140625 0.140625 0.375 0.265625q0.234375 0.109375 0.53125 0.203125q0.3125 0.078125 0.625 0.1875q0.3125 0.109375 0.609375 0.25q0.296875 0.140625 0.53125 0.34375q0.234375 0.203125 0.375 0.5q0.15625 0.296875 0.15625 0.703125q0 0.5 -0.1875 0.921875q-0.171875 0.40625 -0.53125 0.71875q-0.34375 0.296875 -0.859375 0.46875q-0.5 0.171875 -1.15625 0.171875q-0.359375 0 -0.703125 -0.0625q-0.328125 -0.0625 -0.640625 -0.171875q-0.3125 -0.125 -0.578125 -0.265625q-0.25 -0.15625 -0.453125 -0.34375l0.375 -0.625q0.078125 -0.109375 0.171875 -0.171875q0.109375 -0.0625 0.265625 -0.0625q0.140625 0 0.28125 0.09375q0.140625 0.078125 0.3125 0.1875q0.1875 0.09375 0.421875 0.1875q0.25 0.078125 0.625 0.078125q0.296875 0 0.5 -0.0625q0.203125 -0.078125 0.34375 -0.1875q0.140625 -0.109375 0.203125 -0.265625q0.0625 -0.15625 0.0625 -0.3125q0 -0.234375 -0.140625 -0.390625q-0.140625 -0.15625 -0.390625 -0.265625q-0.234375 -0.109375 -0.53125 -0.203125q-0.296875 -0.09375 -0.625 -0.1875q-0.3125 -0.109375 -0.625 -0.25q-0.296875 -0.15625 -0.53125 -0.375q-0.234375 -0.21875 -0.375 -0.53125q-0.140625 -0.328125 -0.140625 -0.78125q0 -0.421875 0.15625 -0.796875q0.171875 -0.375 0.484375 -0.65625q0.328125 -0.296875 0.8125 -0.453125q0.484375 -0.171875 1.125 -0.171875q0.703125 0 1.28125 0.234375q0.578125 0.21875 0.96875 0.609375l-0.375 0.59375z" fill-rule="nonzero"/><path fill="#000000" fill-opacity="0.0" d="m433.0551 140.93176l102.14172 0l0 34.04724l-102.14172 0z" fill-rule="evenodd"/><path fill="#000000" d="m457.77646 160.48976q0.15625 0 0.25 0.109375l0.71875 0.765625q-0.59375 0.71875 -1.453125 1.109375q-0.859375 0.390625 -2.046875 0.390625q-1.078125 0 -1.9375 -0.359375q-0.859375 -0.375 -1.46875 -1.03125q-0.59375 -0.65625 -0.921875 -1.5625q-0.328125 -0.90625 -0.328125 -1.96875q0 -1.09375 0.359375 -1.984375q0.375 -0.90625 1.015625 -1.5625q0.65625 -0.65625 1.5625 -1.015625q0.921875 -0.375 2.015625 -0.375q1.078125 0 1.875 0.34375q0.796875 0.34375 1.375 0.921875l-0.59375 0.828125q-0.0625 0.078125 -0.140625 0.140625q-0.078125 0.0625 -0.234375 0.0625q-0.15625 0 -0.3125 -0.125q-0.15625 -0.125 -0.40625 -0.265625q-0.25 -0.140625 -0.625 -0.25q-0.375 -0.125 -0.953125 -0.125q-0.671875 0 -1.25 0.234375q-0.5625 0.234375 -0.984375 0.6875q-0.40625 0.4375 -0.640625 1.0625q-0.21875 0.625 -0.21875 1.421875q0 0.8125 0.21875 1.453125q0.234375 0.625 0.625 1.0625q0.390625 0.421875 0.921875 0.65625q0.546875 0.234375 1.15625 0.234375q0.359375 0 0.65625 -0.046875q0.296875 -0.046875 0.546875 -0.125q0.25 -0.09375 0.46875 -0.21875q0.234375 -0.140625 0.453125 -0.34375q0.0625 -0.0625 0.140625 -0.09375q0.078125 -0.03125 0.15625 -0.03125zm5.1395874 -4.671875q0.765625 0 1.390625 0.25q0.625 0.234375 1.0625 0.6875q0.4375 0.453125 0.671875 1.109375q0.25 0.65625 0.25 1.453125q0 0.8125 -0.25 1.46875q-0.234375 0.65625 -0.671875 1.125q-0.4375 0.453125 -1.0625 0.703125q-0.625 0.234375 -1.390625 0.234375q-0.765625 0 -1.390625 -0.234375q-0.625 -0.25 -1.078125 -0.703125q-0.4375 -0.46875 -0.6875 -1.125q-0.234375 -0.65625 -0.234375 -1.46875q0 -0.796875 0.234375 -1.453125q0.25 -0.65625 0.6875 -1.109375q0.453125 -0.453125 1.078125 -0.6875q0.625 -0.25 1.390625 -0.25zm0 5.765625q0.859375 0 1.265625 -0.5625q0.40625 -0.578125 0.40625 -1.6875q0 -1.109375 -0.40625 -1.6875q-0.40625 -0.578125 -1.265625 -0.578125q-0.859375 0 -1.28125 0.59375q-0.40625 0.578125 -0.40625 1.671875q0 1.109375 0.40625 1.6875q0.421875 0.5625 1.28125 0.5625zm4.6551514 1.171875l0 -6.84375l1.015625 0q0.3125 0 0.421875 0.3125l0.109375 0.53125q0.203125 -0.203125 0.421875 -0.375q0.234375 -0.1875 0.484375 -0.3125q0.265625 -0.125 0.5625 -0.1875q0.296875 -0.0625 0.640625 -0.0625q0.5625 0 0.984375 0.1875q0.4375 0.1875 0.71875 0.53125q0.296875 0.34375 0.453125 0.828125q0.15625 0.46875 0.15625 1.03125l0 4.359375l-1.65625 0l0 -4.359375q0 -0.625 -0.296875 -0.96875q-0.28125 -0.34375 -0.859375 -0.34375q-0.421875 0 -0.796875 0.203125q-0.375 0.1875 -0.703125 0.53125l0 4.9375l-1.65625 0zm9.826996 0.109375q-0.890625 0 -1.375 -0.5q-0.46875 -0.515625 -0.46875 -1.390625l0 -3.828125l-0.6875 0q-0.140625 0 -0.234375 -0.078125q-0.09375 -0.09375 -0.09375 -0.265625l0 -0.65625l1.09375 -0.171875l0.34375 -1.875q0.03125 -0.125 0.125 -0.203125q0.09375 -0.078125 0.25 -0.078125l0.84375 0l0 2.15625l1.796875 0l0 1.171875l-1.796875 0l0 3.703125q0 0.328125 0.15625 0.515625q0.171875 0.171875 0.4375 0.171875q0.15625 0 0.25 -0.03125q0.109375 -0.046875 0.1875 -0.078125q0.078125 -0.046875 0.125 -0.078125q0.0625 -0.046875 0.125 -0.046875q0.078125 0 0.125 0.046875q0.046875 0.03125 0.09375 0.109375l0.5 0.796875q-0.359375 0.296875 -0.828125 0.453125q-0.46875 0.15625 -0.96875 0.15625zm2.907959 -0.109375l0 -6.84375l0.96875 0q0.25 0 0.34375 0.09375q0.109375 0.09375 0.140625 0.328125l0.109375 0.828125q0.359375 -0.640625 0.84375 -1.0q0.5 -0.375 1.109375 -0.375q0.515625 0 0.84375 0.234375l-0.203125 1.234375q-0.03125 0.125 -0.09375 0.171875q-0.0625 0.046875 -0.171875 0.046875q-0.109375 0 -0.28125 -0.046875q-0.171875 -0.046875 -0.453125 -0.046875q-0.515625 0 -0.890625 0.28125q-0.359375 0.28125 -0.609375 0.828125l0 4.265625l-1.65625 0zm8.366394 -6.9375q0.765625 0 1.390625 0.25q0.625 0.234375 1.0625 0.6875q0.4375 0.453125 0.671875 1.109375q0.25 0.65625 0.25 1.453125q0 0.8125 -0.25 1.46875q-0.234375 0.65625 -0.671875 1.125q-0.4375 0.453125 -1.0625 0.703125q-0.625 0.234375 -1.390625 0.234375q-0.765625 0 -1.390625 -0.234375q-0.625 -0.25 -1.078125 -0.703125q-0.4375 -0.46875 -0.6875 -1.125q-0.234375 -0.65625 -0.234375 -1.46875q0 -0.796875 0.234375 -1.453125q0.25 -0.65625 0.6875 -1.109375q0.453125 -0.453125 1.078125 -0.6875q0.625 -0.25 1.390625 -0.25zm0 5.765625q0.859375 0 1.265625 -0.5625q0.40625 -0.578125 0.40625 -1.6875q0 -1.109375 -0.40625 -1.6875q-0.40625 -0.578125 -1.265625 -0.578125q-0.859375 0 -1.28125 0.59375q-0.40625 0.578125 -0.40625 1.671875q0 1.109375 0.40625 1.6875q0.421875 0.5625 1.28125 0.5625zm6.4051514 -8.734375l0 9.90625l-1.640625 0l0 -9.90625l1.640625 0zm3.611908 0l0 9.90625l-1.640625 0l0 -9.90625l1.640625 0zm4.690033 2.96875q0.65625 0 1.1875 0.203125q0.546875 0.203125 0.9375 0.609375q0.390625 0.390625 0.609375 0.96875q0.21875 0.578125 0.21875 1.3125q0 0.1875 -0.015625 0.3125q-0.015625 0.125 -0.0625 0.203125q-0.03125 0.0625 -0.109375 0.09375q-0.078125 0.015625 -0.1875 0.015625l-4.21875 0q0.0625 1.0625 0.5625 1.5625q0.5 0.484375 1.3125 0.484375q0.390625 0 0.671875 -0.09375q0.296875 -0.09375 0.515625 -0.203125q0.21875 -0.125 0.375 -0.203125q0.171875 -0.09375 0.328125 -0.09375q0.09375 0 0.171875 0.046875q0.078125 0.03125 0.125 0.09375l0.484375 0.609375q-0.28125 0.3125 -0.625 0.53125q-0.328125 0.21875 -0.703125 0.359375q-0.375 0.125 -0.765625 0.171875q-0.375 0.046875 -0.734375 0.046875q-0.703125 0 -1.328125 -0.234375q-0.609375 -0.234375 -1.0625 -0.6875q-0.453125 -0.46875 -0.71875 -1.15625q-0.25 -0.6875 -0.25 -1.578125q0 -0.703125 0.21875 -1.3125q0.234375 -0.625 0.65625 -1.078125q0.421875 -0.453125 1.03125 -0.71875q0.609375 -0.265625 1.375 -0.265625zm0.03125 1.171875q-0.71875 0 -1.125 0.40625q-0.40625 0.40625 -0.515625 1.15625l3.09375 0q0 -0.328125 -0.09375 -0.609375q-0.078125 -0.28125 -0.265625 -0.484375q-0.171875 -0.21875 -0.453125 -0.34375q-0.265625 -0.125 -0.640625 -0.125zm4.264496 5.765625l0 -6.84375l0.96875 0q0.25 0 0.34375 0.09375q0.109375 0.09375 0.140625 0.328125l0.109375 0.828125q0.359375 -0.640625 0.84375 -1.0q0.5 -0.375 1.109375 -0.375q0.515625 0 0.8437195 0.234375l-0.20309448 1.234375q-0.03125 0.125 -0.09375 0.171875q-0.0625 0.046875 -0.171875 0.046875q-0.109375 0 -0.28125 -0.046875q-0.171875 -0.046875 -0.453125 -0.046875q-0.515625 0 -0.890625 0.28125q-0.359375 0.28125 -0.609375 0.828125l0 4.265625l-1.65625 0zm9.506989 -5.5q-0.0625 0.109375 -0.140625 0.15625q-0.078125 0.03125 -0.1875 0.03125q-0.125 0 -0.265625 -0.0625q-0.125 -0.0625 -0.3125 -0.140625q-0.171875 -0.09375 -0.40625 -0.15625q-0.21875 -0.078125 -0.546875 -0.078125q-0.484375 0 -0.765625 0.21875q-0.265625 0.203125 -0.265625 0.53125q0 0.21875 0.140625 0.375q0.140625 0.140625 0.375 0.265625q0.234375 0.109375 0.53125 0.203125q0.3125 0.078125 0.625 0.1875q0.3125 0.109375 0.609375 0.25q0.296875 0.140625 0.53125 0.34375q0.234375 0.203125 0.375 0.5q0.15625 0.296875 0.15625 0.703125q0 0.5 -0.1875 0.921875q-0.171875 0.40625 -0.53125 0.71875q-0.34375 0.296875 -0.859375 0.46875q-0.5 0.171875 -1.15625 0.171875q-0.359375 0 -0.703125 -0.0625q-0.328125 -0.0625 -0.640625 -0.171875q-0.3125 -0.125 -0.578125 -0.265625q-0.25 -0.15625 -0.453125 -0.34375l0.375 -0.625q0.078125 -0.109375 0.171875 -0.171875q0.109375 -0.0625 0.265625 -0.0625q0.140625 0 0.28125 0.09375q0.140625 0.078125 0.3125 0.1875q0.1875 0.09375 0.421875 0.1875q0.25 0.078125 0.625 0.078125q0.296875 0 0.5 -0.0625q0.203125 -0.078125 0.34375 -0.1875q0.140625 -0.109375 0.203125 -0.265625q0.0625 -0.15625 0.0625 -0.3125q0 -0.234375 -0.140625 -0.390625q-0.140625 -0.15625 -0.390625 -0.265625q-0.234375 -0.109375 -0.53125 -0.203125q-0.296875 -0.09375 -0.625 -0.1875q-0.3125 -0.109375 -0.625 -0.25q-0.296875 -0.15625 -0.53125 -0.375q-0.234375 -0.21875 -0.375 -0.53125q-0.140625 -0.328125 -0.140625 -0.78125q0 -0.421875 0.15625 -0.796875q0.171875 -0.375 0.484375 -0.65625q0.328125 -0.296875 0.8125 -0.453125q0.484375 -0.171875 1.125 -0.171875q0.703125 0 1.28125 0.234375q0.578125 0.21875 0.96875 0.609375l-0.375 0.59375z" fill-rule="nonzero"/><path fill="#000000" fill-opacity="0.0" d="m349.3974 251.86884l58.64566 83.62204l-27.874023 19.559082l-58.64566 -83.62207z" fill-rule="evenodd"/><path fill="#000000" d="m346.5997 279.98633l-2.7755127 1.9475403l-1.0317383 -1.4711304l7.891632 -5.537506l1.8033142 2.571289q0.5562439 0.79315186 0.7680969 1.5034485q0.22467041 0.70129395 0.15228271 1.3056335q-0.06338501 0.61712646 -0.41101074 1.1282959q-0.33486938 0.50219727 -0.8848572 0.88812256q-0.5755615 0.40386963 -1.1833801 0.54403687q-0.6078186 0.14019775 -1.22229 -0.0012817383q-0.6055298 -0.12866211 -1.2011108 -0.56970215q-0.59558105 -0.44104004 -1.1338806 -1.2085876l-0.7715454 -1.1001587zm1.151123 -0.80773926l0.7715759 1.1001587q0.28707886 0.4093628 0.5829773 0.6407776q0.3086548 0.22241211 0.6350708 0.2796936q0.3354187 0.07003784 0.67578125 -0.016082764q0.34036255 -0.086120605 0.6729126 -0.31948853q0.31976318 -0.22436523 0.5038147 -0.50619507q0.184021 -0.28182983 0.21954346 -0.6121826q0.04449463 -0.3175354 -0.07232666 -0.67459106q-0.104034424 -0.36602783 -0.39111328 -0.7753906l-0.7715759 -1.1001587l-2.8266602 1.9834595zm-0.26507568 7.976227l5.6021423 -3.9309998l0.5562439 0.79315186q0.14355469 0.2046814 0.12063599 0.3352661q-0.013946533 0.1434021 -0.1878357 0.30361938l-0.6150818 0.56521606q0.7307434 -0.07373047 1.3030396 0.11639404q0.5940552 0.19396973 0.9439392 0.6929016q0.29608154 0.42214966 0.29263306 0.82540894l-1.1270752 0.5427246q-0.120269775 0.046203613 -0.19451904 0.021942139q-0.07424927 -0.024230957 -0.13705444 -0.11376953q-0.062805176 -0.08956909 -0.12313843 -0.25720215q-0.060302734 -0.16763306 -0.22180176 -0.3979187q-0.29605103 -0.42214966 -0.74160767 -0.56762695q-0.43655396 -0.13265991 -1.027771 -0.023223877l-3.4917603 2.4501343l-0.95098877 -1.3560181zm10.428925 2.7881775q0.37683105 0.5372925 0.5155945 1.0888977q0.14770508 0.5644226 0.03945923 1.1175842q-0.095458984 0.54418945 -0.44311523 1.0553589q-0.34762573 0.51116943 -0.948761 0.9329834q-0.15350342 0.10769653 -0.2647705 0.16668701q-0.11129761 0.059020996 -0.20217896 0.06552124q-0.0690918 0.010314941 -0.13952637 -0.035705566q-0.057647705 -0.054992676 -0.12045288 -0.14453125l-2.4223633 -3.45401q-0.8338623 0.6614685 -0.9560547 1.3580322q-0.10940552 0.68759155 0.3571167 1.3528137q0.2243042 0.3197937 0.4625244 0.49621582q0.2472229 0.18920898 0.4623413 0.30548096q0.22793579 0.107299805 0.3815918 0.19033813q0.17544556 0.086883545 0.26516724 0.21481323q0.053833008 0.07675171 0.060302734 0.16763306q0.01928711 0.08190918 -0.0049743652 0.15618896l-0.22070312 0.74658203q-0.41729736 -0.050750732 -0.7937317 -0.20654297q-0.36746216 -0.14300537 -0.6979065 -0.36923218q-0.31762695 -0.23522949 -0.58029175 -0.5281372q-0.25369263 -0.28009033 -0.4600525 -0.5743103q-0.40371704 -0.5756531 -0.5707092 -1.2219849q-0.15805054 -0.6335449 -0.047302246 -1.264801q0.12350464 -0.6402283 0.53378296 -1.252594q0.41921997 -0.59957886 1.1482544 -1.111145q0.5755615 -0.40386963 1.2000122 -0.5747986q0.6461792 -0.16711426 1.2593384 -0.081970215q0.6131592 0.085113525 1.180481 0.43145752q0.5673218 0.346344 1.0069275 0.97317505zm-0.9413147 0.69869995q-0.4126892 -0.58847046 -0.9785156 -0.6877136q-0.5657959 -0.09927368 -1.2425537 0.24197388l1.7763977 2.5329285q0.2685852 -0.18847656 0.4449768 -0.4267578q0.18539429 -0.2255249 0.24398804 -0.49569702q0.0803833 -0.26638794 0.021209717 -0.5684509q-0.050201416 -0.28927612 -0.26550293 -0.59628296zm4.5637817 6.9700623q-0.12539673 0.011657715 -0.20861816 -0.025360107q-0.07046509 -0.046020508 -0.13327026 -0.13555908q-0.071746826 -0.10235596 -0.10134888 -0.25338745q-0.020599365 -0.13824463 -0.06430054 -0.3366394q-0.021972656 -0.19454956 -0.1053772 -0.42233276q-0.061645508 -0.2239685 -0.25006104 -0.49261475q-0.2781067 -0.39657593 -0.61865234 -0.5011902q-0.31881714 -0.10079956 -0.58740234 0.087677q-0.17907715 0.12564087 -0.2262268 0.33050537q-0.034362793 0.19592285 -0.002105713 0.45959473q0.045043945 0.25473022 0.13876343 0.55163574q0.115478516 0.3007202 0.2053833 0.6194153q0.089904785 0.31866455 0.14523315 0.6424866q0.055358887 0.32385254 0.023651123 0.6324158q-0.031677246 0.30856323 -0.19396973 0.59420776q-0.1532898 0.2984314 -0.48583984 0.5317993q-0.40930176 0.28720093 -0.86227417 0.37600708q-0.4312439 0.09262085 -0.8934021 -0.022094727q-0.44039917 -0.1109314 -0.87716675 -0.4343567q-0.4277649 -0.31063843 -0.80459595 -0.8479309q-0.20632935 -0.29421997 -0.35253906 -0.61157227q-0.13726807 -0.3045349 -0.22714233 -0.62319946q-0.07711792 -0.32766724 -0.11453247 -0.6259155q-0.015655518 -0.2944336 0.021209717 -0.5684204l0.7269287 -0.051971436q0.13439941 0.0011291504 0.23937988 0.041992188q0.113983154 0.053649902 0.20367432 0.18157959q0.08074951 0.115112305 0.084747314 0.28411865q0.016815186 0.16000366 0.025970459 0.3635254q0.030914307 0.20736694 0.08874512 0.453125q0.079589844 0.24954224 0.29492188 0.5565491q0.17044067 0.24307251 0.33825684 0.37347412q0.18057251 0.12142944 0.3508606 0.17373657q0.17025757 0.05230713 0.3340454 0.01373291q0.16378784 -0.03857422 0.291687 -0.12832642q0.19186401 -0.13461304 0.23901367 -0.33950806q0.047180176 -0.2048645 -0.0068359375 -0.4723816q-0.045043945 -0.25473022 -0.13876343 -0.55163574q-0.09371948 -0.29690552 -0.2053833 -0.61938477q-0.089904785 -0.31869507 -0.15423584 -0.65530396q-0.042541504 -0.3328247 0.001953125 -0.6503601q0.04446411 -0.3175354 0.21954346 -0.6121521q0.1878357 -0.30361938 0.55877686 -0.5638733q0.3453369 -0.24234009 0.7420044 -0.32980347q0.40567017 -0.07467651 0.8153076 0.019622803q0.431427 0.09811401 0.8374634 0.40493774q0.41882324 0.29785156 0.7866516 0.8223572q0.40371704 0.5756531 0.54382324 1.1835938q0.15289307 0.598999 0.057403564 1.143158l-0.701355 0.0340271zm3.8122253 2.932251q0.37683105 0.5372925 0.5155945 1.0889282q0.1477356 0.5643921 0.03945923 1.1175537q-0.095458984 0.54418945 -0.44308472 1.0553589q-0.34765625 0.51116943 -0.9487915 0.9329834q-0.1534729 0.10772705 -0.2647705 0.16671753q-0.11129761 0.059020996 -0.20217896 0.06549072q-0.0690918 0.010314941 -0.13952637 -0.03567505q-0.057647705 -0.054992676 -0.12045288 -0.14453125l-2.4223633 -3.45401q-0.8338318 0.6614685 -0.9560547 1.3580322q-0.10940552 0.68756104 0.35714722 1.3527832q0.22427368 0.31982422 0.4625244 0.49624634q0.24719238 0.18920898 0.4623108 0.30548096q0.22793579 0.107299805 0.3815918 0.19033813q0.17544556 0.086883545 0.26516724 0.21478271q0.053833008 0.07678223 0.060302734 0.16766357q0.01928711 0.08190918 -0.0049743652 0.15618896l-0.2206726 0.74658203q-0.41729736 -0.05078125 -0.7937622 -0.20654297q-0.36746216 -0.14300537 -0.697876 -0.3692627q-0.31765747 -0.23522949 -0.58032227 -0.5281067q-0.25369263 -0.28009033 -0.46002197 -0.5743103q-0.40374756 -0.5756836 -0.57073975 -1.2220154q-0.15805054 -0.6335144 -0.047302246 -1.2647705q0.123535156 -0.6402283 0.53378296 -1.2526245q0.41921997 -0.59954834 1.1482849 -1.111145q0.5755615 -0.40386963 1.1999817 -0.57476807q0.6461792 -0.16711426 1.2593384 -0.08200073q0.6131592 0.08514404 1.180481 0.43145752q0.5673218 0.346344 1.0069275 0.97317505zm-0.9413147 0.69869995q-0.4126892 -0.58843994 -0.9785156 -0.6877136q-0.5657959 -0.099243164 -1.2425537 0.2420044l1.7763977 2.5329285q0.2685852 -0.18847656 0.44500732 -0.42678833q0.18536377 -0.22549438 0.24395752 -0.49569702q0.0803833 -0.26635742 0.021209717 -0.5684204q-0.0501709 -0.28927612 -0.26550293 -0.5963135zm-2.2710266 6.803192l5.602173 -3.9309998l0.5831604 0.83151245q0.17941284 0.25585938 -0.013580322 0.52490234l-0.3720703 0.39468384q0.28289795 0.049621582 0.54919434 0.13000488q0.28805542 0.084198 0.53393555 0.21707153q0.2548523 0.1456604 0.47647095 0.35284424q0.22161865 0.20715332 0.41897583 0.48858643q0.32299805 0.46054077 0.41174316 0.91363525q0.097717285 0.46588135 -0.02218628 0.8935852q-0.11090088 0.44052124 -0.4176941 0.8466797q-0.29400635 0.39715576 -0.75445557 0.72024536l-3.5684814 2.5039978l-0.95098877 -1.3560181l3.5684814 -2.5039978q0.5116272 -0.35897827 0.6225281 -0.7994995q0.119903564 -0.42770386 -0.21203613 -0.9010315q-0.24224854 -0.34539795 -0.62384033 -0.5357361q-0.36880493 -0.19934082 -0.8385925 -0.27053833l-4.041748 2.83609l-0.95098877 -1.3560181zm5.553009 8.108429q-0.51138306 -0.729187 -0.3802185 -1.4129333q0.15292358 -0.67996216 0.86920166 -1.1825562l3.133606 -2.1988525l-0.39474487 -0.5628662q-0.08074951 -0.11514282 -0.070617676 -0.23675537q0.022918701 -0.13061523 0.16360474 -0.2293396l0.5372009 -0.3769226l0.7687073 0.7967529l1.7322083 -0.79556274q0.120269775 -0.046203613 0.23803711 -0.014343262q0.11779785 0.03189087 0.20751953 0.15982056l0.48446655 0.6907959l-1.7650757 1.2385254l1.0317383 1.4711609l-0.95925903 0.6730957l-1.0317383 -1.4711304l-3.031311 2.1270447q-0.2685852 0.18847656 -0.33236694 0.42410278q-0.041992188 0.23944092 0.11050415 0.45690918q0.08972168 0.12792969 0.16912842 0.18673706q0.10116577 0.06262207 0.17163086 0.10864258q0.083221436 0.037017822 0.13571167 0.0574646q0.07424927 0.024230957 0.11013794 0.075408936q0.04486084 0.063964844 0.033416748 0.12927246q0.0013122559 0.05630493 -0.035705566 0.1395874l-0.36520386 0.8670654q-0.44937134 -0.12371826 -0.84643555 -0.4177246q-0.3970337 -0.29403687 -0.68414307 -0.70339966zm9.062012 0.6485901q0.37680054 0.5372925 0.51556396 1.0889282q0.1477356 0.5643921 0.039489746 1.1175537q-0.095458984 0.54418945 -0.44311523 1.0553589q-0.34762573 0.51116943 -0.948761 0.9329834q-0.15350342 0.10769653 -0.26480103 0.16671753q-0.11129761 0.05899048 -0.20214844 0.06549072q-0.069122314 0.010314941 -0.13955688 -0.035705566q-0.057647705 -0.05496216 -0.12045288 -0.14453125l-2.4223328 -3.4539795q-0.8338623 0.6614685 -0.9560547 1.3580017q-0.10940552 0.68759155 0.3571167 1.3528137q0.2243042 0.31982422 0.4625244 0.49621582q0.24719238 0.18920898 0.4623413 0.30548096q0.22793579 0.107299805 0.3815918 0.19036865q0.17544556 0.08685303 0.26513672 0.21478271q0.053833008 0.07675171 0.060333252 0.16766357q0.01928711 0.08190918 -0.0049743652 0.15618896l-0.22070312 0.74658203q-0.41729736 -0.05078125 -0.7937317 -0.20657349q-0.36746216 -0.14297485 -0.6979065 -0.36923218q-0.31762695 -0.23522949 -0.58029175 -0.5281067q-0.25369263 -0.28009033 -0.4600525 -0.5743408q-0.40371704 -0.5756531 -0.57073975 -1.2219849q-0.15802002 -0.6335449 -0.047302246 -1.264801q0.123535156 -0.6402283 0.53378296 -1.252594q0.4192505 -0.59957886 1.1482849 -1.111145q0.5755615 -0.40386963 1.1999817 -0.5747986q0.6462097 -0.16708374 1.2593384 -0.081970215q0.6131592 0.08514404 1.1805115 0.43145752q0.5673218 0.346344 1.0069275 0.97317505zm-0.9413452 0.69869995q-0.4126892 -0.58843994 -0.9784851 -0.6877136q-0.5658264 -0.099243164 -1.2425537 0.2420044l1.7763977 2.5329285q0.2685852 -0.18847656 0.4449768 -0.42678833q0.18536377 -0.2255249 0.24398804 -0.49569702q0.0803833 -0.26635742 0.021209717 -0.5684204q-0.050201416 -0.28927612 -0.26553345 -0.5963135zm-2.270996 6.803192l5.6021423 -3.9310303l0.5562439 0.79315186q0.14355469 0.2046814 0.12063599 0.33529663q-0.013946533 0.1434021 -0.1878357 0.30358887l-0.6150818 0.56521606q0.7307434 -0.07373047 1.3030396 0.11642456q0.5940552 0.19396973 0.9439392 0.6928711q0.29608154 0.42214966 0.29263306 0.82540894l-1.1270752 0.5427246q-0.120269775 0.046203613 -0.19451904 0.021972656q-0.07424927 -0.024261475 -0.13705444 -0.11380005q-0.062805176 -0.089538574 -0.12313843 -0.25720215q-0.060302734 -0.16763306 -0.22180176 -0.39788818q-0.29605103 -0.42218018 -0.74160767 -0.56762695q-0.43655396 -0.13269043 -1.027771 -0.023254395l-3.4917603 2.4501343l-0.95098877 -1.3559875zm9.960999 4.6244507q-0.12542725 0.011657715 -0.20864868 -0.025390625q-0.07046509 -0.04598999 -0.13323975 -0.13555908q-0.071777344 -0.10232544 -0.101379395 -0.25335693q-0.020599365 -0.13824463 -0.06430054 -0.3366394q-0.021972656 -0.19454956 -0.1053772 -0.42236328q-0.061645508 -0.2239685 -0.25006104 -0.49261475q-0.2781067 -0.3965454 -0.61865234 -0.50115967q-0.31881714 -0.10079956 -0.58740234 0.087646484q-0.17907715 0.12567139 -0.2262268 0.3305359q-0.034362793 0.19592285 -0.002105713 0.45959473q0.045043945 0.25473022 0.13876343 0.55163574q0.115478516 0.3007202 0.2053833 0.61938477q0.089904785 0.31869507 0.14523315 0.6425171q0.055358887 0.32382202 0.023651123 0.63238525q-0.031677246 0.30856323 -0.19396973 0.5942383q-0.1532898 0.2984314 -0.48583984 0.5317993q-0.40930176 0.2871704 -0.86227417 0.37600708q-0.4312439 0.09262085 -0.8934021 -0.022125244q-0.44039917 -0.11090088 -0.87713623 -0.43432617q-0.4277954 -0.31063843 -0.80462646 -0.8479309q-0.20632935 -0.29421997 -0.35253906 -0.61157227q-0.13726807 -0.3045349 -0.22714233 -0.62323q-0.07711792 -0.32763672 -0.11453247 -0.625885q-0.015625 -0.2944336 0.021209717 -0.5684204l0.7269287 -0.051971436q0.13439941 0.0011291504 0.23937988 0.041992188q0.113983154 0.053649902 0.20367432 0.18154907q0.08074951 0.11514282 0.084747314 0.28411865q0.016815186 0.16000366 0.025970459 0.3635559q0.030914307 0.20736694 0.08874512 0.45309448q0.079589844 0.24957275 0.29492188 0.5565796q0.17044067 0.24307251 0.33825684 0.37347412q0.18057251 0.12142944 0.3508606 0.17373657q0.17025757 0.05230713 0.3340454 0.01373291q0.16378784 -0.03857422 0.29171753 -0.12832642q0.1918335 -0.13464355 0.23901367 -0.33950806q0.04714966 -0.20489502 -0.006866455 -0.4723816q-0.045043945 -0.25473022 -0.13876343 -0.55163574q-0.09371948 -0.29690552 -0.2053833 -0.61938477q-0.089904785 -0.31869507 -0.15423584 -0.65530396q-0.042541504 -0.3328247 0.001953125 -0.6503601q0.04446411 -0.3175354 0.21954346 -0.6121521q0.1878357 -0.30361938 0.55877686 -0.5638733q0.3453369 -0.24234009 0.7420044 -0.32980347q0.40567017 -0.07467651 0.8153076 0.019622803q0.431427 0.09811401 0.8374634 0.40493774q0.41882324 0.29785156 0.7866516 0.82232666q0.40371704 0.5756836 0.54382324 1.1836243q0.15289307 0.5989685 0.057403564 1.143158l-0.70132446 0.0340271z" fill-rule="nonzero"/><path fill="#000000" fill-opacity="0.0" d="m535.1969 341.69196l76.47241 -67.71652l22.582703 25.480316l-76.47247 67.71652z" fill-rule="evenodd"/><path fill="#000000" d="m568.94653 339.20346q0.4562378 -0.40396118 0.7229614 -0.78622437q0.25628662 -0.39395142 0.4360962 -0.80358887l-1.1607056 -1.3096619l-0.90075684 0.7976074q-0.12866211 0.11395264 -0.2727661 0.11630249q-0.13238525 -0.008026123 -0.22564697 -0.11325073l-0.673645 -0.7600708l2.3980713 -2.1235046l2.5805664 2.9116516q-0.10455322 0.4473877 -0.26226807 0.8583679q-0.15771484 0.41098022 -0.4140625 0.80493164q-0.25634766 0.39395142 -0.6008911 0.78256226q-0.3446045 0.38858032 -0.7774048 0.7718506q-0.7954712 0.7043762 -1.7006226 1.0258789q-0.9038086 0.29943848 -1.8303833 0.24337769q-0.914917 -0.06643677 -1.7967529 -0.4960327q-0.8701172 -0.43997192 -1.5748291 -1.2351379q-0.72546387 -0.8185425 -1.0574951 -1.7349854q-0.33203125 -0.9164734 -0.27734375 -1.8206177q0.056030273 -0.926178 0.5078125 -1.8062744q0.4414673 -0.89178467 1.3071289 -1.6583252q0.8890381 -0.78726196 1.770813 -1.0880127q0.8713379 -0.31246948 1.7006836 -0.2955017l0.14117432 0.9602661q0.048828125 0.29067993 -0.13830566 0.4564209q-0.117004395 0.10357666 -0.3182373 0.13565063q-0.23498535 0.041137695 -0.49334717 0.10296631q-0.2467041 0.051452637 -0.50775146 0.15740967q-0.26104736 0.10592651 -0.55981445 0.28704834q-0.29882812 0.18109131 -0.6264038 0.47113037q-0.5263672 0.466156 -0.793396 1.036499q-0.27734375 0.5586853 -0.28094482 1.1671143q-0.013977051 0.5967407 0.2368164 1.2094727q0.25073242 0.61276245 0.7689209 1.1974487q0.5493164 0.619751 1.1600342 0.95547485q0.60040283 0.32406616 1.2050781 0.39385986q0.60601807 0.047729492 1.2046509 -0.1484375q0.5999756 -0.2182312 1.1029663 -0.6636658zm8.716553 -5.965393l-0.5498047 0.48684692q-0.17547607 0.15539551 -0.3222046 0.20184326q-0.14538574 0.024414062 -0.33728027 -0.09786987l-0.43823242 -0.25891113q-0.03173828 0.3411255 -0.09454346 0.6471863q-0.07318115 0.29437256 -0.20080566 0.57437134q-0.12634277 0.2579651 -0.3071289 0.5015259q-0.18078613 0.24359131 -0.4498291 0.48184204q-0.32757568 0.29003906 -0.68084717 0.4567871q-0.35198975 0.14471436 -0.7062988 0.14538574q-0.35430908 7.019043E-4 -0.6876221 -0.16333008q-0.33325195 -0.16403198 -0.64416504 -0.51483154q-0.24871826 -0.28063965 -0.34539795 -0.69592285q-0.10699463 -0.42700195 0.047058105 -0.9599304q0.1539917 -0.53292847 0.604187 -1.2028809q0.46185303 -0.68029785 1.3067627 -1.4702148l-0.25909424 -0.29232788q-0.45599365 -0.51452637 -0.895874 -0.56326294q-0.43859863 -0.07080078 -0.84802246 0.29174805q-0.30413818 0.26931763 -0.4407959 0.51556396q-0.13671875 0.24624634 -0.20587158 0.4744568q-0.06781006 0.20617676 -0.13433838 0.3902588q-0.054748535 0.17376709 -0.20684814 0.30841064q-0.12866211 0.11395264 -0.27404785 0.1383667q-0.144104 0.0023498535 -0.28552246 -0.03942871l-0.57458496 -0.20074463q0.1739502 -1.5941162 1.4139404 -2.6921082q0.45617676 -0.4039917 0.9418335 -0.5627136q0.4753418 -0.17044067 0.94763184 -0.108673096q0.47369385 0.039733887 0.93395996 0.2999878q0.44995117 0.24853516 0.83343506 0.68118286l2.8603516 3.2273865zm-3.0820923 1.3517456q0.19891357 -0.17608643 0.31988525 -0.3458252q0.13269043 -0.18011475 0.21087646 -0.37457275q0.078186035 -0.19445801 0.1239624 -0.40194702q0.047058105 -0.22955322 0.0513916 -0.48382568l-0.76690674 -0.8652954q-0.517395 0.49987793 -0.81781006 0.8911438q-0.28875732 0.3809204 -0.41778564 0.6829834q-0.12896729 0.30203247 -0.09820557 0.52523804q0.030822754 0.22317505 0.17590332 0.38690186q0.27978516 0.31570435 0.5913696 0.2902832q0.32318115 -0.0357666 0.62731934 -0.30508423zm6.050415 -3.834076q-0.6668091 0.5904236 -1.361084 0.5373535q-0.6929321 -0.07510376 -1.2733154 -0.72994995l-2.5390625 -2.8648987l-0.5147095 0.45578003q-0.105285645 0.0932312 -0.22729492 0.09692383q-0.13238525 -0.008026123 -0.24633789 -0.1366272l-0.43530273 -0.4911499l0.704834 -0.85369873l-0.9862671 -1.6311035q-0.059509277 -0.11425781 -0.041137695 -0.2348938q0.018371582 -0.12060547 0.13537598 -0.22421265l0.63165283 -0.5593567l1.4301758 1.6137085l1.3452759 -1.1912537l0.7772827 0.87701416l-1.3452759 1.1912231l2.4561768 2.7713623q0.21765137 0.24554443 0.45898438 0.2822876q0.24267578 0.014678955 0.44152832 -0.16140747q0.117004395 -0.10357666 0.16644287 -0.18911743q0.05078125 -0.10760498 0.08856201 -0.18276978q0.027404785 -0.086883545 0.041748047 -0.14135742q0.01574707 -0.07650757 0.0625 -0.11795044q0.058532715 -0.05178833 0.124694824 -0.04776001q0.055847168 -0.0076904297 0.14276123 0.019683838l0.90283203 0.26489258q-0.072143555 0.4604187 -0.31939697 0.88812256q-0.24731445 0.42767334 -0.62164307 0.7591553zm-0.37957764 -9.076447q0.49127197 -0.4350586 1.0237427 -0.6352234q0.5441284 -0.21054077 1.1060791 -0.16546631q0.5515137 0.033355713 1.0987549 0.3209839q0.5472412 0.2876587 1.0343018 0.83724976q0.12438965 0.14031982 0.19555664 0.24420166q0.07122803 0.10391235 0.08795166 0.19345093q0.018066406 0.06750488 -0.019714355 0.14266968q-0.048095703 0.06350708 -0.13000488 0.13601685l-3.1584473 2.7967834q0.7515259 0.75372314 1.4575195 0.79644775q0.6956177 0.031036377 1.303894 -0.5076294q0.29241943 -0.25894165 0.4407959 -0.51556396q0.16009521 -0.26696777 0.25134277 -0.49386597q0.08087158 -0.23855591 0.1459961 -0.40060425q0.06652832 -0.18411255 0.18347168 -0.2876892q0.07019043 -0.062164307 0.15979004 -0.07885742q0.07922363 -0.028411865 0.15576172 -0.01272583l0.76678467 0.13494873q-0.0032348633 0.4203186 -0.11553955 0.81192017q-0.1005249 0.3812256 -0.2880249 0.7350769q-0.19781494 0.34213257 -0.45922852 0.63619995q-0.24963379 0.2836609 -0.51867676 0.5219116q-0.5264282 0.466156 -1.1497803 0.7050781q-0.61169434 0.22857666 -1.2514648 0.18988037q-0.6501465 -0.05041504 -1.3049927 -0.38882446q-0.6431885 -0.3487854 -1.2338867 -1.0152893q-0.46636963 -0.5262146 -0.7067871 -1.1272888q-0.2390747 -0.6231079 -0.22381592 -1.2418823q0.015319824 -0.61880493 0.29534912 -1.2215576q0.2800293 -0.6027832 0.8532715 -1.1103516zm0.8006592 0.8562927q-0.538147 0.47650146 -0.57281494 1.0498352q-0.03466797 0.57336426 0.38085938 1.2071533l2.3162231 -2.0509949q-0.21765137 -0.24557495 -0.47436523 -0.39389038q-0.24505615 -0.1586914 -0.5201416 -0.18640137q-0.2738037 -0.04977417 -0.56726074 0.043151855q-0.28173828 0.08255005 -0.5625 0.33114624zm1.857605 -3.084961l0.982605 -0.8701172q0.14038086 -0.124298096 0.29614258 -0.13702393q0.15576172 -0.0126953125 0.26208496 0.06011963l3.1620483 2.0836792q0.2553711 0.17037964 0.48736572 0.3614807q0.22167969 0.17941284 0.44329834 0.35882568q-0.12805176 -0.26229858 -0.25610352 -0.52456665q-0.13842773 -0.2739563 -0.26513672 -0.5582886l-1.581543 -3.5041199q-0.059509277 -0.11425781 -0.017700195 -0.25561523q0.03137207 -0.15301514 0.14837646 -0.2565918l0.5498047 -0.48684692q0.12866211 -0.11395264 0.27270508 -0.11630249q0.14544678 -0.024414062 0.26342773 0.03805542l3.3191528 2.0489197q0.24505615 0.1586914 0.47839355 0.32772827q0.23468018 0.14700317 0.4576416 0.3043518q-0.15148926 -0.24154663 -0.29119873 -0.49346924q-0.15014648 -0.26361084 -0.28857422 -0.53756714l-1.6647339 -3.4095764q-0.059509277 -0.11425781 -0.028076172 -0.26727295q0.03137207 -0.15304565 0.16009521 -0.2669983l0.935791 -0.8286743l2.913269 6.561554l-0.99432373 0.88046265q-0.15203857 0.13467407 -0.41918945 -0.025360107l-3.5460815 -2.1401062q-0.17120361 -0.09887695 -0.3423462 -0.1977539q-0.1697998 -0.12094116 -0.3279419 -0.2522583q0.111328125 0.17272949 0.21099854 0.35583496q0.0892334 0.17138672 0.17718506 0.36483765l1.6757812 3.7754211q0.12670898 0.28433228 -0.072143555 0.4604187l-0.935791 0.82870483l-6.165283 -3.6818848zm17.064453 -5.969391l-0.5498047 0.48684692q-0.17547607 0.15539551 -0.3222046 0.20184326q-0.14538574 0.024383545 -0.33728027 -0.09786987l-0.43823242 -0.25891113q-0.03173828 0.3411255 -0.09454346 0.6471863q-0.07318115 0.29437256 -0.20080566 0.57437134q-0.12634277 0.25793457 -0.3071289 0.5015259q-0.18078613 0.24359131 -0.44989014 0.48184204q-0.32751465 0.29003906 -0.68078613 0.4567871q-0.35198975 0.14468384 -0.7062988 0.14538574q-0.35430908 7.019043E-4 -0.6876221 -0.16333008q-0.33325195 -0.16403198 -0.64416504 -0.51483154q-0.24871826 -0.28063965 -0.34539795 -0.69595337q-0.10699463 -0.42700195 0.04699707 -0.9599304q0.15405273 -0.53292847 0.60424805 -1.2028503q0.46185303 -0.68029785 1.3067627 -1.4702148l-0.25909424 -0.2923584q-0.45599365 -0.51449585 -0.895874 -0.56326294q-0.43859863 -0.07080078 -0.84802246 0.29174805q-0.30413818 0.26934814 -0.4407959 0.5155945q-0.13671875 0.24624634 -0.20587158 0.4744568q-0.06781006 0.20614624 -0.13433838 0.3902588q-0.05480957 0.17373657 -0.20684814 0.30841064q-0.12866211 0.11395264 -0.2741089 0.13833618q-0.14404297 0.0023498535 -0.28546143 -0.039398193l-0.57458496 -0.20077515q0.1739502 -1.5940857 1.4138794 -2.6920776q0.4562378 -0.4039917 0.94189453 -0.56274414q0.4753418 -0.17041016 0.94763184 -0.10864258q0.4736328 0.039733887 0.93395996 0.29995728q0.44995117 0.24856567 0.83343506 0.6812134l2.8603516 3.2273865zm-3.0820923 1.3517456q0.19885254 -0.17611694 0.31988525 -0.3458557q0.1326294 -0.18008423 0.21087646 -0.37454224q0.078186035 -0.19448853 0.1239624 -0.40197754q0.047058105 -0.2295227 0.0513916 -0.48379517l-0.76690674 -0.8653259q-0.517395 0.49987793 -0.81781006 0.8911743q-0.28875732 0.3809204 -0.41778564 0.6829529q-0.12896729 0.302063 -0.09820557 0.52523804q0.030822754 0.22320557 0.17590332 0.38690186q0.27978516 0.31573486 0.5913086 0.29031372q0.3232422 -0.0357666 0.6273804 -0.30508423zm7.18219 -2.4779053q0.055480957 0.18041992 0.024108887 0.33343506q-0.019714355 0.14266968 -0.19519043 0.29803467l-0.9241333 0.81832886l-0.85443115 -2.895752l-6.278137 -2.9140625l1.0761719 -0.9529724q0.15209961 -0.13467407 0.29614258 -0.13702393q0.144104 -0.0023498535 0.26208496 0.06011963l3.4404297 1.6910706q0.17248535 0.07684326 0.3319702 0.18609619q0.17114258 0.09887695 0.3189087 0.21847534q-0.08795166 -0.19345093 -0.15515137 -0.36349487q-0.07757568 -0.1817627 -0.13305664 -0.36218262l-1.3231201 -3.5659485q-0.047851562 -0.12463379 -0.016418457 -0.27764893q0.03137207 -0.15304565 0.14837646 -0.2566223l0.982605 -0.8701172l2.9988403 8.990265zm1.6483154 -11.310486q0.025756836 0.123291016 -0.0015869141 0.21014404q-0.03778076 0.07519531 -0.11968994 0.14770508q-0.093566895 0.082855225 -0.24029541 0.12930298q-0.1350708 0.036102295 -0.3272705 0.10192871q-0.19085693 0.043792725 -0.40777588 0.15240479q-0.21557617 0.08654785 -0.46124268 0.30407715q-0.36260986 0.32110596 -0.4281006 0.67126465q-0.06414795 0.328125 0.15350342 0.57366943q0.14508057 0.1637268 0.3540039 0.18743896q0.19854736 0.011993408 0.4569702 -0.049835205q0.24798584 -0.073516846 0.53240967 -0.2001648q0.28582764 -0.14871216 0.59228516 -0.27401733q0.30651855 -0.1253357 0.6220703 -0.21688843q0.31549072 -0.09158325 0.6257324 -0.094940186q0.31018066 -0.0033569336 0.6123657 0.12557983q0.3139038 0.11859131 0.583313 0.42260742q0.33166504 0.37420654 0.47113037 0.8142395q0.14074707 0.41796875 0.07897949 0.8900757q-0.060424805 0.45007324 -0.3324585 0.9205322q-0.26037598 0.460083 -0.75164795 0.8951416q-0.26904297 0.23825073 -0.5678711 0.41937256q-0.28710938 0.17074585 -0.5936279 0.29605103q-0.3168335 0.11364746 -0.6090088 0.18447876q-0.29077148 0.048828125 -0.56726074 0.043151855l-0.13378906 -0.7163391q-0.014038086 -0.13363647 0.014709473 -0.24258423q0.040405273 -0.119262695 0.15740967 -0.22283936q0.105285645 -0.0932312 0.2727661 -0.11630249q0.15704346 -0.03475952 0.35827637 -0.06686401q0.20257568 -0.054138184 0.44024658 -0.13934326q0.23895264 -0.10726929 0.51971436 -0.355896q0.222229 -0.19680786 0.33288574 -0.37823486q0.10021973 -0.19311523 0.1329956 -0.36819458q0.032714844 -0.17507935 -0.024108887 -0.33346558q-0.056884766 -0.15835571 -0.16052246 -0.27529907q-0.15545654 -0.17541504 -0.36431885 -0.19909668q-0.20892334 -0.023712158 -0.46862793 0.060150146q-0.24804688 0.07354736 -0.5324707 0.20019531q-0.28448486 0.12664795 -0.59228516 0.27401733q-0.30651855 0.12530518 -0.633728 0.22723389q-0.32592773 0.07989502 -0.6464844 0.07156372q-0.32055664 -0.008331299 -0.6331177 -0.14898682q-0.32287598 -0.15231323 -0.6234741 -0.49142456q-0.27978516 -0.31573486 -0.41156006 -0.6999512q-0.12005615 -0.3945923 -0.072631836 -0.81225586q0.04876709 -0.43969727 0.30773926 -0.8777466q0.24865723 -0.44973755 0.7282715 -0.8744507q0.5264282 -0.4661255 1.114685 -0.6739807q0.5779419 -0.21957397 1.1294556 -0.18618774l0.11303711 0.69296265z" fill-rule="nonzero"/><path fill="#000000" fill-opacity="0.0" d="m428.92914 81.45407l102.14172 0l0 34.04724l-102.14172 0z" fill-rule="evenodd"/><path fill="#000000" d="m464.94742 93.63706l1.515625 0q0.21875 0 0.375 0.109375q0.15625 0.109375 0.21875 0.296875l1.640625 5.765625q0.0625 0.21875 0.109375 0.46875q0.046875 0.25 0.09375 0.53125q0.046875 -0.28125 0.109375 -0.53125q0.078125 -0.25 0.140625 -0.46875l1.890625 -5.765625q0.0625 -0.15625 0.21875 -0.28125q0.15625 -0.125 0.375 -0.125l0.53125 0q0.234375 0 0.390625 0.109375q0.15625 0.109375 0.203125 0.296875l1.890625 5.765625q0.140625 0.4375 0.25 0.953125q0.046875 -0.265625 0.09375 -0.5q0.046875 -0.25 0.109375 -0.453125l1.640625 -5.765625q0.046875 -0.15625 0.203125 -0.28125q0.15625 -0.125 0.390625 -0.125l1.40625 0l-3.0 9.640625l-1.625 0l-2.09375 -6.578125q-0.046875 -0.125 -0.09375 -0.265625q-0.03125 -0.15625 -0.078125 -0.328125q-0.046875 0.171875 -0.09375 0.328125q-0.03125 0.140625 -0.078125 0.265625l-2.125 6.578125l-1.609375 0l-3.0 -9.640625zm20.916595 0l0 1.4375l-4.265625 0l0 2.671875l3.359375 0l0 1.375l-3.359375 0l0 2.71875l4.265625 0l0 1.4375l-6.078125 0l0 -9.640625l6.078125 0zm1.552185 9.640625l0 -9.640625l3.328125 0q0.953125 0 1.609375 0.1875q0.671875 0.171875 1.09375 0.515625q0.4375 0.328125 0.640625 0.8125q0.203125 0.46875 0.203125 1.046875q0 0.34375 -0.109375 0.65625q-0.09375 0.3125 -0.3125 0.578125q-0.203125 0.265625 -0.53125 0.5q-0.3125 0.21875 -0.765625 0.359375q1.984375 0.453125 1.984375 2.15625q0 0.609375 -0.234375 1.140625q-0.21875 0.515625 -0.671875 0.890625q-0.453125 0.375 -1.109375 0.59375q-0.640625 0.203125 -1.484375 0.203125l-3.640625 0zm1.796875 -4.21875l0 2.8125l1.8125 0q0.5 0 0.828125 -0.109375q0.34375 -0.125 0.546875 -0.328125q0.21875 -0.203125 0.296875 -0.46875q0.09375 -0.265625 0.09375 -0.5625q0 -0.3125 -0.109375 -0.5625q-0.09375 -0.25 -0.3125 -0.421875q-0.203125 -0.171875 -0.546875 -0.265625q-0.328125 -0.09375 -0.796875 -0.09375l-1.8125 0zm0 -1.25l1.4375 0q0.90625 0 1.375 -0.328125q0.484375 -0.328125 0.484375 -1.0625q0 -0.75 -0.4375 -1.0625q-0.421875 -0.328125 -1.328125 -0.328125l-1.53125 0l0 2.78125z" fill-rule="nonzero"/><path fill="#000000" fill-opacity="0.0" d="m587.1092 119.10568l90.39374 47.55905l-15.842529 30.141739l-90.39368 -47.55905z" fill-rule="evenodd"/><path fill="#000000" d="m612.0751 151.4654q-0.48706055 0.92666626 -1.2194824 1.547699q-0.7185669 0.62831116 -1.5835571 0.8970947q-0.86499023 0.2687683 -1.8342285 0.16491699q-0.9481201 -0.1104126 -1.9160767 -0.6196747l-3.2633667 -1.71698l4.4852905 -8.533676l3.2633667 1.7169647q0.96795654 0.50927734 1.5889893 1.2420807q0.63482666 0.7400818 0.9036865 1.6054382q0.27618408 0.8515167 0.16601562 1.799942q-0.09631348 0.9556885 -0.5906372 1.8961945zm-1.6178589 -0.85121155q0.37072754 -0.7053833 0.4678955 -1.3604736q0.10449219 -0.6689148 -0.03765869 -1.2380676q-0.14215088 -0.5691376 -0.538208 -1.0246887q-0.3887329 -0.4693756 -1.0109863 -0.7967682l-1.6593628 -0.8730316l-3.1549683 6.0026245l1.6593628 0.8730316q0.6222534 0.32739258 1.229065 0.38183594q0.60687256 0.05444336 1.1561279 -0.15093994q0.54919434 -0.2053833 1.0335693 -0.6567688q0.49163818 -0.46520996 0.8551636 -1.1567535zm6.265564 0.8953552q0.5807495 0.3055725 0.9564209 0.73272705q0.38946533 0.43444824 0.5461426 0.97592163q0.16400146 0.5276642 0.08862305 1.1412659q-0.07537842 0.6135864 -0.41705322 1.2636414q-0.08728027 0.16596985 -0.15924072 0.26934814q-0.07196045 0.103378296 -0.14984131 0.1506958q-0.05670166 0.040771484 -0.14038086 0.032058716q-0.076416016 -0.022537231 -0.17321777 -0.07347107l-3.7335205 -1.964325q-0.43902588 0.9696045 -0.22912598 1.6450043q0.21710205 0.66156006 0.9361572 1.0398865q0.34570312 0.1818695 0.6382446 0.22984314q0.30633545 0.055252075 0.55078125 0.060287476q0.25177002 -0.0087890625 0.4263916 -0.005203247q0.19573975 -0.0029449463 0.33398438 0.06980896q0.08300781 0.043640137 0.13031006 0.121520996q0.054626465 0.06402588 0.0670166 0.14117432l0.1451416 0.7649536q-0.3942871 0.1456604 -0.80029297 0.17922974q-0.39215088 0.04084778 -0.7894287 -0.009277344q-0.39001465 -0.063949585 -0.75756836 -0.2043457q-0.3536377 -0.13311768 -0.6716919 -0.30044556q-0.6222534 -0.32739258 -1.0663452 -0.8258667q-0.43023682 -0.49119568 -0.62042236 -1.1032867q-0.18292236 -0.62590027 -0.09814453 -1.358139q0.09863281 -0.7249756 0.5130005 -1.5133362q0.32714844 -0.62239075 0.8041992 -1.0599365q0.49822998 -0.44410706 1.0823975 -0.6487732q0.5841675 -0.20466614 1.2470093 -0.15605164q0.66290283 0.048614502 1.3404541 0.40509033zm-0.5175781 1.0518799q-0.63604736 -0.33467102 -1.1845703 -0.16421509q-0.548584 0.17044067 -0.9942627 0.7834015l2.737915 1.440506q0.15264893 -0.29045105 0.20050049 -0.5830536q0.061767578 -0.28533936 -0.00970459 -0.55244446q-0.05029297 -0.27366638 -0.24108887 -0.5152588q-0.17687988 -0.23432922 -0.50878906 -0.40893555zm3.9390259 8.587357l-1.3275146 -0.6984253l0.77801514 -7.3238525l1.203064 0.6329651q0.16589355 0.08729553 0.23291016 0.2284851q0.0670166 0.14118958 0.050354004 0.27366638l-0.5395508 3.8475494q-0.048583984 0.32754517 -0.124816895 0.6405487q-0.06903076 0.29916382 -0.15911865 0.6048889q0.20074463 -0.24752808 0.40802002 -0.473938q0.21447754 -0.24023438 0.45666504 -0.46592712l2.9041138 -2.603485q0.09967041 -0.08882141 0.24005127 -0.12088013q0.15423584 -0.024780273 0.30633545 0.055236816l1.1477661 0.6038513l-5.576294 4.7993164zm7.9833374 -3.5328674l-3.184082 6.0579376l-1.4519043 -0.76390076l3.184082 -6.057953l1.4519043 0.763916zm1.1444702 -1.6401215q-0.101745605 0.19363403 -0.27197266 0.3159485q-0.14910889 0.11576843 -0.33898926 0.17475891q-0.18988037 0.059005737 -0.413208 0.047409058q-0.20233154 -0.0181427 -0.39587402 -0.11999512q-0.19360352 -0.10185242 -0.32318115 -0.25831604q-0.12231445 -0.17028809 -0.18139648 -0.36024475q-0.059020996 -0.18995667 -0.06201172 -0.3857422q0.018127441 -0.2023468 0.11987305 -0.39598083q0.10180664 -0.19363403 0.2581787 -0.32322693q0.1774292 -0.13615417 0.36730957 -0.19515991q0.18988037 -0.059005737 0.39215088 -0.04084778q0.20233154 0.0181427 0.39587402 0.11999512q0.19360352 0.101867676 0.32318115 0.25831604q0.14343262 0.16374207 0.20245361 0.35369873q0.059020996 0.18995667 0.033691406 0.40612793q-0.004272461 0.20962524 -0.1060791 0.40325928zm4.0862427 6.034134q-0.11279297 0.04660034 -0.21099854 0.06555176q-0.07714844 0.012390137 -0.18774414 -0.045806885q-0.1105957 -0.05821228 -0.18487549 -0.18556213q-0.074279785 -0.12736511 -0.1828003 -0.29037476q-0.09466553 -0.1557312 -0.26574707 -0.3340149q-0.17102051 -0.17828369 -0.46142578 -0.33106995q-0.38720703 -0.20370483 -0.75024414 -0.21818542q-0.36309814 -0.014465332 -0.6948242 0.14646912q-0.32440186 0.14709473 -0.6174927 0.4696045q-0.27923584 0.3297882 -0.51916504 0.7862091q-0.25439453 0.48406982 -0.36114502 0.9222717q-0.08569336 0.43164062 -0.030212402 0.7962799q0.06274414 0.35081482 0.26660156 0.6346283q0.2111206 0.26997375 0.55682373 0.45185852q0.34570312 0.18188477 0.5967407 0.20802307q0.26483154 0.033432007 0.46783447 0.01663208q0.21026611 -0.03060913 0.36450195 -0.055389404q0.15423584 -0.024795532 0.27868652 0.04069519q0.17980957 0.094573975 0.21118164 0.26997375l0.13128662 0.7576752q-0.3942871 0.1456604 -0.786438 0.18650818q-0.37835693 0.04812622 -0.74798584 0.012542725q-0.36236572 -0.04940796 -0.7022095 -0.17524719q-0.33984375 -0.12583923 -0.6716919 -0.30044556q-0.5531616 -0.29101562 -0.94189453 -0.760376q-0.38879395 -0.4693756 -0.55133057 -1.0669098q-0.14868164 -0.59025574 -0.064575195 -1.2875671q0.09790039 -0.6900177 0.49041748 -1.4368896q0.348938 -0.6638794 0.8405762 -1.1291046q0.49163818 -0.46520996 1.0692749 -0.690979q0.59143066 -0.2184906 1.2681274 -0.16261292q0.6766968 0.055892944 1.381897 0.42692566q0.6776123 0.3564911 1.072937 0.84698486q0.4025879 0.4766388 0.5993042 1.1098328l-0.6633911 0.3218689zm4.5897827 0.6669464q0.58081055 0.30555725 0.9564209 0.73272705q0.38946533 0.43443298 0.5462036 0.97592163q0.16394043 0.5276489 0.08856201 1.1412506q-0.07537842 0.6136017 -0.41705322 1.2636566q-0.08721924 0.16596985 -0.15924072 0.2693329q-0.07196045 0.103378296 -0.14978027 0.15071106q-0.056762695 0.040771484 -0.1404419 0.032058716q-0.076416016 -0.02255249 -0.17321777 -0.07347107l-3.7335205 -1.9643402q-0.43902588 0.9696045 -0.22912598 1.6450043q0.21710205 0.6615753 0.9361572 1.0398865q0.34570312 0.18188477 0.6382446 0.2298584q0.30633545 0.055236816 0.5508423 0.060272217q0.25170898 -0.0087890625 0.42633057 -0.0051879883q0.19573975 -0.002960205 0.3340454 0.0697937q0.08294678 0.043655396 0.13024902 0.121520996q0.054626465 0.06404114 0.0670166 0.14118958l0.1451416 0.76493835q-0.3942871 0.1456604 -0.80023193 0.179245q-0.3922119 0.04084778 -0.78948975 -0.009277344q-0.39001465 -0.063964844 -0.7575073 -0.20436096q-0.35369873 -0.13310242 -0.6717529 -0.30044556q-0.6222534 -0.32737732 -1.0662842 -0.8258667q-0.43023682 -0.49119568 -0.6204834 -1.1032715q-0.18292236 -0.6259155 -0.098083496 -1.3581543q0.09857178 -0.7249603 0.51293945 -1.5133362q0.32714844 -0.62239075 0.80426025 -1.0599365q0.49816895 -0.44410706 1.0823364 -0.6487732q0.5841675 -0.20466614 1.2470703 -0.15605164q0.6628418 0.048614502 1.3403931 0.4051056zm-0.5175171 1.0518646q-0.6361084 -0.33465576 -1.1846313 -0.16421509q-0.54852295 0.17044067 -0.9942627 0.7834015l2.737915 1.440506q0.15264893 -0.29045105 0.20056152 -0.5830536q0.061706543 -0.28533936 -0.00970459 -0.55244446q-0.050354004 -0.27365112 -0.24108887 -0.5152588q-0.17694092 -0.23432922 -0.50878906 -0.40893555zm7.2456665 4.112335q-0.10620117 0.067718506 -0.19714355 0.0728302q-0.0836792 -0.008712769 -0.18048096 -0.059646606q-0.11065674 -0.05819702 -0.20599365 -0.17900085q-0.08154297 -0.11352539 -0.2111206 -0.269989q-0.10852051 -0.16300964 -0.28686523 -0.32746887q-0.15722656 -0.17100525 -0.44763184 -0.3237915q-0.4286499 -0.2255249 -0.7792969 -0.16285706q-0.32958984 0.056121826 -0.48223877 0.34657288q-0.10180664 0.19363403 -0.050048828 0.39743042q0.059020996 0.18995667 0.20831299 0.409729q0.15649414 0.20594788 0.37561035 0.42715454q0.24023438 0.21466064 0.46588135 0.45698547q0.22570801 0.24232483 0.42297363 0.5050354q0.19732666 0.26271057 0.3102417 0.55163574q0.11291504 0.28894043 0.099243164 0.61720276q1.2207031E-4 0.33554077 -0.18884277 0.69514465q-0.23266602 0.44258118 -0.59484863 0.728714q-0.3411255 0.2795868 -0.8045654 0.38887024q-0.44232178 0.10272217 -0.97857666 0.014785767q-0.52246094 -0.08067322 -1.1032715 -0.38623047q-0.3180542 -0.16734314 -0.59313965 -0.38272095q-0.26135254 -0.20809937 -0.4869995 -0.4504242q-0.21838379 -0.2561493 -0.38806152 -0.504303q-0.14855957 -0.25471497 -0.24108887 -0.51527405l0.62268066 -0.3786316q0.11999512 -0.060440063 0.23205566 -0.07211304q0.12585449 -0.0043945312 0.26416016 0.068359375q0.12445068 0.065475464 0.20526123 0.21394348q0.088134766 0.1346283 0.18933105 0.31147766q0.12231445 0.17028809 0.2861328 0.3624115q0.18487549 0.18554688 0.51678467 0.3601532q0.2626953 0.13824463 0.47155762 0.17749023q0.21612549 0.025421143 0.39141846 -0.0059051514q0.175354 -0.031341553 0.30334473 -0.1405487q0.12805176 -0.10920715 0.20074463 -0.24752808q0.10900879 -0.2074585 0.057250977 -0.41123962q-0.051757812 -0.20379639 -0.22210693 -0.41700745q-0.15649414 -0.20594788 -0.37561035 -0.4271698q-0.21911621 -0.22122192 -0.46588135 -0.45698547q-0.22570801 -0.24232483 -0.4368286 -0.5122986q-0.19000244 -0.2765503 -0.2956543 -0.5792999q-0.105651855 -0.3027649 -0.0847168 -0.64486694q0.028198242 -0.3559265 0.23901367 -0.75701904q0.19628906 -0.3734436 0.5090332 -0.6326294q0.32659912 -0.25190735 0.7340088 -0.35536194q0.4284668 -0.11000061 0.9298096 -0.022781372q0.508667 0.073394775 1.0756226 0.37168884q0.6222534 0.32737732 1.0248413 0.8040314q0.40985107 0.46281433 0.5737915 0.9904785l-0.60809326 0.3509674z" fill-rule="nonzero"/><path fill="#000000" fill-opacity="0.0" d="m258.3707 269.56842l47.590546 -90.3622l30.141724 15.842529l-47.590546 90.3622z" fill-rule="evenodd"/><path fill="#000000" d="m297.3228 232.11852q0.92666626 0.48706055 1.5475769 1.2193909q0.6281738 0.71850586 0.8967285 1.583374q0.26852417 0.8648834 0.16433716 1.8339233q-0.11071777 0.947937 -0.62039185 1.9156799l-1.7183533 3.2626648l-8.533661 -4.485306l1.7183228 -3.2626648q0.5096741 -0.9677429 1.2427979 -1.588562q0.7404175 -0.63464355 1.6060181 -0.90341187q0.8517456 -0.2760315 1.800293 -0.16581726q0.95584106 0.09638977 1.8963318 0.59072876zm-0.8518677 1.6175079q-0.7053833 -0.37075806 -1.3605652 -0.46798706q-0.66900635 -0.10450745 -1.2382812 0.03756714q-0.5693054 0.14207458 -1.0250549 0.5379944q-0.46957397 0.38865662 -0.7972412 1.0107727l-0.87371826 1.6589813l6.0026245 3.1549835l0.87371826 -1.6589813q0.32766724 -0.6221161 0.38232422 -1.2288513q0.054656982 -0.6067352 -0.15060425 -1.1559143q-0.20523071 -0.5491638 -0.65652466 -1.033493q-0.46514893 -0.4915924 -1.1566772 -0.855072zm5.764282 -0.6174164l-8.533661 -4.485306l1.5508423 -2.944687q0.44415283 -0.84332275 0.9159241 -1.336731q0.46524048 -0.5145111 0.966095 -0.72784424q0.49432373 -0.23443604 1.0177307 -0.18881226q0.5095825 0.038375854 1.0213318 0.30734253q0.30429077 0.15992737 0.52993774 0.4020996q0.23294067 0.22833252 0.36611938 0.5454712q0.14047241 0.30329895 0.19503784 0.70266724q0.04800415 0.37826538 -0.03866577 0.84461975q1.3258057 -1.5449524 2.833374 -0.7525635q0.5393982 0.2835083 0.90042114 0.73805237q0.3544922 0.43344116 0.47528076 1.0088348q0.120788574 0.5753784 0.008636475 1.2577972q-0.1187439 0.6613312 -0.51190186 1.4078674l-1.6965027 3.2211914zm-2.8970032 -3.5526276l2.489563 1.3085175l0.8446045 -1.6036835q0.23297119 -0.44239807 0.2890625 -0.7836151q0.04953003 -0.36228943 -0.035614014 -0.6365204q-0.07785034 -0.28805542 -0.2765808 -0.48075867q-0.19143677 -0.20652771 -0.45422363 -0.34465027q-0.27661133 -0.145401 -0.54888916 -0.16493225q-0.26498413 -0.03337097 -0.51904297 0.080215454q-0.24679565 0.09976196 -0.48995972 0.36029053q-0.23590088 0.2467041 -0.4543457 0.66145325l-0.844574 1.6036835zm-1.1064758 -0.5815735l0.6698303 -1.2718811q0.42230225 -0.80184937 0.35031128 -1.3692474q-0.0647583 -0.5812378 -0.71481323 -0.92289734q-0.6638794 -0.348938 -1.1443481 -0.10723877q-0.48706055 0.22061157 -0.9093628 1.0224609l-0.7135315 1.3548279l2.461914 1.2939758z" fill-rule="nonzero"/><path fill="#000000" fill-opacity="0.0" d="m433.69998 406.95395l102.078705 3.7795105l-1.2283325 34.015747l-102.078735 -3.7795105z" fill-rule="evenodd"/><path fill="#000000" d="m466.288 412.3417l-0.051879883 1.4365845l-4.262726 -0.15783691l-0.09640503 2.6701355l3.3570862 0.124298096l-0.049621582 1.374115l-3.3570862 -0.124298096l-0.09811401 2.71698l4.2626953 0.1578064l-0.051879883 1.4365845l-6.073944 -0.22491455l0.3479004 -9.634338l6.0739746 0.22488403zm2.8608398 6.2194824l-2.1289062 -3.3935852l1.5926514 0.05895996q0.17175293 0.006378174 0.24758911 0.07171631q0.09197998 0.050323486 0.16610718 0.1625061l1.3385925 2.3323975q0.03515625 -0.1081543 0.08596802 -0.21572876q0.06637573 -0.10699463 0.14898682 -0.22903442l1.2046814 -1.753479q0.08258057 -0.122039795 0.16290283 -0.1816101q0.095947266 -0.05899048 0.23648071 -0.053771973l1.4989624 0.055480957l-2.3657532 3.1646423l2.2124634 3.678131l-1.5770569 -0.058380127q-0.18734741 -0.006958008 -0.29327393 -0.10467529q-0.10592651 -0.0977478 -0.16384888 -0.22497559l-1.3664246 -2.4272156q-0.07092285 0.23190308 -0.18643188 0.3996277l-1.3514099 1.920044q-0.08258057 0.122039795 -0.19528198 0.21166992q-0.097076416 0.09024048 -0.26882935 0.083862305l-1.4677429 -0.05432129l2.469574 -3.4422607zm7.685425 3.9277039q-0.89001465 -0.032958984 -1.3560181 -0.5505676q-0.44979858 -0.5326233 -0.4182434 -1.407074l0.13815308 -3.8256226l-0.6870117 -0.025421143q-0.14053345 -0.005218506 -0.2314148 -0.086761475q-0.09030151 -0.09716797 -0.08407593 -0.2689209l0.02368164 -0.65582275l1.0991821 -0.13128662l0.41119385 -1.8610535q0.035736084 -0.1237793 0.13223267 -0.19836426q0.09649658 -0.07461548 0.25265503 -0.068847656l0.84317017 0.031219482l-0.077819824 2.1548462l1.7956543 0.0664978l-0.042297363 1.1711121l-1.7956543 -0.0664978l-0.13363647 3.700714q-0.01184082 0.32791138 0.13754272 0.52108765q0.16555786 0.17810059 0.43099976 0.18795776q0.15615845 0.0057678223 0.25094604 -0.022003174q0.11099243 -0.042785645 0.19021606 -0.071136475q0.07974243 -0.043945312 0.12771606 -0.07345581q0.06414795 -0.044525146 0.12661743 -0.04220581q0.078063965 0.00289917 0.12322998 0.051483154q0.045715332 0.032958984 0.08972168 0.11276245l0.47091675 0.81484985q-0.36984253 0.28338623 -0.8439331 0.42218018q-0.47406006 0.13882446 -0.97372437 0.12033081zm5.9864807 -6.830078q0.65579224 0.024291992 1.1793518 0.24694824q0.53915405 0.22323608 0.91485596 0.64367676q0.37628174 0.40481567 0.5740051 0.9906616q0.19772339 0.58584595 0.17123413 1.3197327q-0.0067749023 0.18737793 -0.026885986 0.31170654q-0.020141602 0.12435913 -0.0697937 0.2006836q-0.033477783 0.061309814 -0.1126709 0.089660645q-0.0786438 0.01272583 -0.18795776 0.008666992l-4.215851 -0.15609741q0.024108887 1.0641174 0.5057373 1.5823059q0.48217773 0.5025635 1.2941284 0.5326233q0.39035034 0.014434814 0.67477417 -0.068847656q0.30004883 -0.08270264 0.5226135 -0.18389893q0.22311401 -0.11682129 0.38208008 -0.18911743q0.17514038 -0.08734131 0.3312683 -0.08154297q0.093688965 0.0034484863 0.17007446 0.05319214q0.076934814 0.034118652 0.121520996 0.09829712l0.46206665 0.6269226q-0.29232788 0.30187988 -0.6437378 0.507782q-0.33581543 0.20645142 -0.7156372 0.33312988q-0.37924194 0.11102295 -0.77130127 0.14343262q-0.37643433 0.032958984 -0.7355652 0.01965332q-0.7026367 -0.026000977 -1.3187561 -0.2833557q-0.6004944 -0.2567749 -1.0369568 -0.7263794q-0.43588257 -0.48519897 -0.6765137 -1.1820679q-0.22503662 -0.6963196 -0.19290161 -1.5863647q0.025390625 -0.70266724 0.2659607 -1.3035583q0.2567749 -0.61590576 0.69473267 -1.0531311q0.43792725 -0.43722534 1.0564575 -0.68011475q0.6185608 -0.24291992 1.383667 -0.21459961zm-0.011077881 1.1722717q-0.7182617 -0.02658081 -1.1388855 0.36437988q-0.42062378 0.39093018 -0.55700684 1.1364136l3.0916443 0.114471436q0.01184082 -0.32791138 -0.07168579 -0.6124573q-0.06793213 -0.28396606 -0.24798584 -0.49389648q-0.16384888 -0.22494507 -0.44039917 -0.36029053q-0.2609253 -0.1347351 -0.63568115 -0.1486206zm4.0534973 5.9196777l0.24697876 -6.8392944l0.9680786 0.035827637q0.24984741 0.009246826 0.34014893 0.106414795q0.105895996 0.0977478 0.12866211 0.33312988l0.079437256 0.831604q0.38223267 -0.6268921 0.87924194 -0.96810913q0.5132141 -0.3562622 1.1221619 -0.33370972q0.5152588 0.019073486 0.8347168 0.2654419l-0.24752808 1.2260437q-0.035736084 0.1237793 -0.09988403 0.16830444q-0.06414795 0.044525146 -0.17346191 0.04046631q-0.109313965 -0.0040283203 -0.2793579 -0.057250977q-0.17007446 -0.05319214 -0.45114136 -0.06359863q-0.5152588 -0.019073486 -0.9001465 0.24810791q-0.3692932 0.26779175 -0.638855 0.8050537l-0.15393066 4.262848l-1.6551208 -0.061279297zm5.440796 0.20144653l0.24697876 -6.8392944l1.0149231 0.03756714q0.31228638 0.011566162 0.41030884 0.32791138l0.09011841 0.5349426q0.21032715 -0.19546509 0.43511963 -0.35913086q0.24099731 -0.17871094 0.4953308 -0.29437256q0.2699585 -0.115112305 0.5688782 -0.16656494q0.29891968 -0.051483154 0.64245605 -0.038757324q0.5621033 0.020812988 0.9769287 0.2237854q0.43041992 0.20358276 0.6990967 0.5574951q0.28424072 0.3545227 0.4229126 0.84436035q0.13922119 0.47421265 0.118927 1.0363464l-0.15731812 4.356537l-1.6551208 -0.061279297l0.15731812 -4.356537q0.02255249 -0.62457275 -0.26171875 -0.97909546q-0.26864624 -0.35394287 -0.8463745 -0.3753357q-0.42156982 -0.015594482 -0.8036499 0.17352295q-0.38150024 0.17349243 -0.7218323 0.5048828l-0.17816162 4.9342957l-1.6551208 -0.061279297zm12.927521 0.4786377l-0.7338562 -0.027160645q-0.23422241 -0.008666992 -0.37249756 -0.07635498q-0.12210083 -0.08267212 -0.17666626 -0.30361938l-0.13864136 -0.48983765q-0.25830078 0.22497559 -0.5148926 0.4031067q-0.25604248 0.1625061 -0.54159546 0.27703857q-0.26940918 0.09945679 -0.56832886 0.15093994q-0.29891968 0.051483154 -0.65805054 0.03817749q-0.43719482 -0.016174316 -0.8079834 -0.13937378q-0.35461426 -0.13821411 -0.6116028 -0.38226318q-0.25698853 -0.24404907 -0.38513184 -0.59277344q-0.1281128 -0.34872437 -0.111206055 -0.8171692q0.013549805 -0.37475586 0.23007202 -0.7420044q0.21707153 -0.38284302 0.696228 -0.6622009q0.47912598 -0.2793274 1.2671814 -0.45339966q0.8036499 -0.17352295 1.9602356 -0.16195679l0.014099121 -0.39038086q0.024810791 -0.68704224 -0.26000977 -1.02594q-0.26867676 -0.35394287 -0.815155 -0.37417603q-0.40597534 -0.015045166 -0.6748047 0.06881714q-0.26882935 0.083862305 -0.47631836 0.20126343q-0.1913147 0.102386475 -0.36645508 0.18969727q-0.1595459 0.08792114 -0.3625183 0.08041382q-0.17175293 -0.006378174 -0.29385376 -0.08908081q-0.10592651 -0.097717285 -0.17947388 -0.2255249l-0.27749634 -0.54190063q1.2255859 -1.0334778 2.8807068 -0.9721985q0.60894775 0.02255249 1.0700378 0.2428894q0.46166992 0.20471191 0.7609863 0.57540894q0.31549072 0.35568237 0.46920776 0.86169434q0.15429688 0.490448 0.13342285 1.0681763l-0.15563965 4.3096924zm-3.1636963 -1.1490784q0.2654419 0.00982666 0.4701233 -0.029510498q0.22027588 -0.038757324 0.41104126 -0.12548828q0.19073486 -0.086761475 0.3670044 -0.20532227q0.19244385 -0.13360596 0.37097168 -0.3146057l0.041748047 -1.1555176q-0.71939087 0.004638672 -1.2068176 0.08041382q-0.47183228 0.07635498 -0.7735596 0.2059021q-0.3017578 0.12954712 -0.43344116 0.31228638q-0.13168335 0.18276978 -0.13955688 0.4013672q-0.0152282715 0.42160034 0.22781372 0.6182251q0.2586975 0.19720459 0.66467285 0.21224976zm6.88678 -8.626099l-0.35751343 9.89978l-1.6394958 -0.060699463l0.3574829 -9.89978l1.6395264 0.060699463z" fill-rule="nonzero"/><path fill="#000000" d="m456.44485 437.63547l-1.7956238 -0.0664978l0.3479004 -9.634338l1.7956543 0.066467285l-0.3479309 9.634369zm2.0742188 0.07678223l0.24697876 -6.8392944l1.0149231 0.037597656q0.31228638 0.011566162 0.41030884 0.32791138l0.090148926 0.5349426q0.21029663 -0.1954956 0.43511963 -0.35916138q0.2409668 -0.17871094 0.4953003 -0.29437256q0.2699585 -0.11508179 0.5688782 -0.16656494q0.2989502 -0.051483154 0.64245605 -0.038757324q0.5621033 0.020812988 0.9769287 0.22381592q0.43045044 0.20355225 0.6990967 0.5574951q0.28427124 0.3544922 0.4229126 0.84436035q0.13925171 0.47421265 0.118927 1.0363464l-0.15731812 4.356537l-1.6550903 -0.061279297l0.15731812 -4.356537q0.02255249 -0.6246033 -0.26171875 -0.97909546q-0.26864624 -0.35394287 -0.8463745 -0.3753357q-0.42160034 -0.015594482 -0.8036804 0.17352295q-0.38150024 0.17349243 -0.72180176 0.5048828l-0.17819214 4.934265l-1.6551208 -0.061279297zm9.816345 0.4729309q-0.89001465 -0.032958984 -1.3560181 -0.5505676q-0.4498291 -0.5326233 -0.4182434 -1.407074l0.13815308 -3.8256226l-0.68704224 -0.025421143q-0.14053345 -0.005218506 -0.23138428 -0.086761475q-0.09030151 -0.09716797 -0.084106445 -0.2689209l0.02368164 -0.65582275l1.0992126 -0.13128662l0.41116333 -1.8610535q0.035736084 -0.1237793 0.13226318 -0.19839478q0.09649658 -0.07458496 0.25265503 -0.06881714l0.84317017 0.031219482l-0.077819824 2.1548462l1.7956238 0.0664978l-0.042266846 1.1711121l-1.7956543 -0.0664978l-0.13363647 3.700714q-0.01184082 0.32791138 0.13754272 0.52108765q0.16555786 0.17810059 0.43099976 0.18792725q0.15612793 0.00579834 0.25094604 -0.021972656q0.11099243 -0.042785645 0.19018555 -0.071136475q0.07977295 -0.043945312 0.12774658 -0.07345581q0.06414795 -0.044525146 0.12658691 -0.04220581q0.07809448 0.00289917 0.12322998 0.051483154q0.045715332 0.032958984 0.0897522 0.11276245l0.47088623 0.81484985q-0.36984253 0.28338623 -0.8439026 0.42218018q-0.47406006 0.13882446 -0.97372437 0.12033081zm5.98645 -6.830078q0.65582275 0.024291992 1.1793518 0.24694824q0.5391846 0.22323608 0.9148865 0.64364624q0.37625122 0.4048462 0.5740051 0.99069214q0.19772339 0.58584595 0.17123413 1.3197327q-0.0067749023 0.18737793 -0.026916504 0.31170654q-0.020111084 0.12435913 -0.06976318 0.2006836q-0.0335083 0.061309814 -0.112701416 0.089660645q-0.0786438 0.0126953125 -0.18792725 0.008666992l-4.215851 -0.15609741q0.024108887 1.0641174 0.5057068 1.5823059q0.48217773 0.50253296 1.2941284 0.5326233q0.39035034 0.014434814 0.6748047 -0.068847656q0.30004883 -0.08270264 0.522583 -0.18389893q0.22311401 -0.11682129 0.38208008 -0.18911743q0.17514038 -0.08734131 0.33129883 -0.08157349q0.093688965 0.003479004 0.17004395 0.053222656q0.07696533 0.034118652 0.12155151 0.09829712l0.46203613 0.6269226q-0.29232788 0.30187988 -0.6437378 0.507782q-0.3357849 0.20645142 -0.7156067 0.33309937q-0.37924194 0.11105347 -0.77130127 0.14346313q-0.37643433 0.032958984 -0.7355652 0.01965332q-0.7026367 -0.026000977 -1.3187561 -0.2833557q-0.6004944 -0.2567749 -1.0369568 -0.7263794q-0.4359131 -0.48519897 -0.6765442 -1.1820679q-0.2250061 -0.6963196 -0.1928711 -1.5863647q0.025360107 -0.70266724 0.2659607 -1.3035583q0.2567749 -0.61590576 0.69470215 -1.0531311q0.43795776 -0.43722534 1.056488 -0.68011475q0.6185303 -0.24291992 1.3836365 -0.21459961zm-0.011047363 1.1722717q-0.7182617 -0.02658081 -1.1388855 0.36437988q-0.4206543 0.39093018 -0.55700684 1.1364136l3.0916443 0.114471436q0.01184082 -0.32791138 -0.07171631 -0.6124573q-0.06790161 -0.28396606 -0.24795532 -0.49389648q-0.16384888 -0.22494507 -0.44039917 -0.36029053q-0.2609558 -0.1347351 -0.63568115 -0.1486206zm4.0534973 5.9196777l0.24697876 -6.8392944l0.9680786 0.035827637q0.2498169 0.009246826 0.3401184 0.106414795q0.10592651 0.0977478 0.12869263 0.33309937l0.07940674 0.8316345q0.38226318 -0.6268921 0.87927246 -0.96810913q0.5131836 -0.3562622 1.1221313 -0.33370972q0.5152893 0.019073486 0.8347168 0.2654419l-0.24752808 1.2260437q-0.035736084 0.1237793 -0.09988403 0.16830444q-0.06414795 0.044525146 -0.1734314 0.04046631q-0.109313965 -0.0040283203 -0.27938843 -0.057250977q-0.17004395 -0.05319214 -0.45111084 -0.06359863q-0.5152893 -0.019073486 -0.900177 0.24810791q-0.3692627 0.26779175 -0.63882446 0.8050537l-0.15393066 4.262848l-1.6551208 -0.061279297zm5.7374573 0.21243286l0.20187378 -5.5901184l-0.5899658 -0.11566162q-0.18624878 -0.03817749 -0.30776978 -0.13647461q-0.1053772 -0.113342285 -0.098602295 -0.3007202l0.024261475 -0.67144775l1.0149231 0.03756714l0.018035889 -0.4996643q0.02142334 -0.5933533 0.20953369 -1.0398254q0.20428467 -0.46151733 0.54403687 -0.7772827q0.3397522 -0.31576538 0.8143616 -0.47018433q0.4746399 -0.15441895 1.0679932 -0.13244629q0.4840393 0.017913818 0.88549805 0.15786743l-0.06112671 0.826416q-0.022369385 0.1867981 -0.1958313 0.22729492q-0.1734314 0.04046631 -0.3920288 0.03237915q-0.2810669 -0.010406494 -0.5175476 0.043395996q-0.2364502 0.053771973 -0.3982544 0.20413208q-0.16177368 0.15039062 -0.26504517 0.41235352q-0.08709717 0.24694824 -0.100616455 0.6217041l-0.016357422 0.45285034l1.7800293 0.06588745l-0.042297363 1.1711121l-1.7331848 -0.06417847l-0.2024231 5.6057434l-1.6394958 -0.060699463zm9.727325 0.36013794l-0.7338867 -0.027160645q-0.2341919 -0.008666992 -0.37246704 -0.07632446q-0.12210083 -0.08270264 -0.17666626 -0.30361938l-0.13867188 -0.48983765q-0.25827026 0.22494507 -0.51486206 0.40307617q-0.25604248 0.16253662 -0.54159546 0.27703857q-0.26940918 0.099487305 -0.56832886 0.15093994q-0.29891968 0.051483154 -0.65805054 0.03817749q-0.43719482 -0.016174316 -0.8080139 -0.13934326q-0.35461426 -0.13821411 -0.6116028 -0.3822937q-0.25698853 -0.24404907 -0.38510132 -0.59277344q-0.1281128 -0.34872437 -0.111206055 -0.8171692q0.013519287 -0.37475586 0.2300415 -0.7420044q0.21710205 -0.38284302 0.696228 -0.6621704q0.4791565 -0.2793579 1.2671814 -0.45343018q0.8036804 -0.17352295 1.9602661 -0.16195679l0.014099121 -0.39038086q0.024810791 -0.68704224 -0.26004028 -1.02594q-0.26864624 -0.35394287 -0.815155 -0.37417603q-0.40594482 -0.015014648 -0.67477417 0.068847656q-0.26882935 0.083862305 -0.47634888 0.20126343q-0.1913147 0.10235596 -0.36645508 0.18969727q-0.15951538 0.087890625 -0.3624878 0.0803833q-0.17178345 -0.006378174 -0.29385376 -0.08905029q-0.10592651 -0.0977478 -0.1795044 -0.22555542l-0.27749634 -0.54190063q1.2256165 -1.0334778 2.8807068 -0.9721985q0.6089783 0.02255249 1.0700684 0.2428894q0.46166992 0.20471191 0.7609863 0.57540894q0.31549072 0.35568237 0.46920776 0.86172485q0.15426636 0.49041748 0.13342285 1.0681458l-0.15563965 4.3096924zm-3.1637268 -1.1490784q0.2654419 0.00982666 0.4701233 -0.029510498q0.2203064 -0.038757324 0.41104126 -0.12548828q0.19076538 -0.086761475 0.3670349 -0.20532227q0.19244385 -0.13360596 0.37097168 -0.3146057l0.04171753 -1.1555176q-0.71939087 0.004638672 -1.2068176 0.08041382q-0.47180176 0.07635498 -0.7735596 0.2059021q-0.3017273 0.12954712 -0.43341064 0.31228638q-0.13168335 0.18276978 -0.1395874 0.4013672q-0.0152282715 0.42160034 0.22784424 0.6182251q0.258667 0.19720459 0.66464233 0.21224976zm9.784241 -4.0000916q-0.081451416 0.090789795 -0.16177368 0.1503601q-0.06414795 0.044525146 -0.18908691 0.039916992q-0.12490845 -0.004638672 -0.24700928 -0.08734131q-0.12207031 -0.08270264 -0.2904663 -0.18273926q-0.15274048 -0.099487305 -0.38415527 -0.18621826q-0.23138428 -0.086761475 -0.55929565 -0.09887695q-0.43719482 -0.016204834 -0.77072144 0.12780762q-0.33355713 0.14401245 -0.5628662 0.43258667q-0.22875977 0.27297974 -0.35327148 0.69055176q-0.10891724 0.41812134 -0.12753296 0.93341064q-0.019714355 0.5465088 0.073791504 0.98776245q0.109680176 0.426239 0.31756592 0.73101807q0.20846558 0.28915405 0.5151062 0.45687866q0.30722046 0.15209961 0.6975708 0.16653442q0.39035034 0.014465332 0.6279602 -0.07055664q0.25320435 -0.08444214 0.42892456 -0.18737793q0.17626953 -0.11856079 0.30456543 -0.2076416q0.1282959 -0.08905029 0.26879883 -0.083862305q0.20300293 0.007537842 0.30722046 0.15209961l0.44644165 0.6263428q-0.29232788 0.30187988 -0.6281128 0.5083313q-0.32019043 0.20706177 -0.6687927 0.33486938q-0.34802246 0.112213135 -0.7088318 0.14575195q-0.36083984 0.03353882 -0.7355652 0.019683838q-0.62457275 -0.023132324 -1.1782227 -0.27816772q-0.5536804 -0.2550354 -0.9588928 -0.7234802q-0.38961792 -0.467865 -0.6157837 -1.1329346q-0.21054077 -0.66448975 -0.18008423 -1.5076904q0.027069092 -0.7495117 0.26879883 -1.3816223q0.24169922 -0.6321106 0.6646118 -1.0855408q0.43847656 -0.45281982 1.0726624 -0.6951599q0.6341553 -0.24230957 1.430481 -0.21282959q0.7651062 0.028320312 1.3338013 0.29956055q0.5692749 0.25561523 1.0207825 0.74139404l-0.45861816 0.57717896zm4.425934 -1.3840637q0.65582275 0.024261475 1.1793823 0.24691772q0.53915405 0.22323608 0.91485596 0.64367676q0.37625122 0.40481567 0.5740051 0.9906616q0.19772339 0.58584595 0.17123413 1.3197327q-0.0067749023 0.18737793 -0.026885986 0.31173706q-0.020141602 0.12432861 -0.0697937 0.2006836q-0.033477783 0.061279297 -0.112701416 0.08963013q-0.07861328 0.01272583 -0.18792725 0.008666992l-4.215851 -0.15609741q0.024108887 1.0641174 0.5057068 1.5823059q0.48217773 0.5025635 1.2941284 0.5326233q0.39035034 0.014465332 0.6748047 -0.06881714q0.30004883 -0.08270264 0.5226135 -0.18392944q0.2230835 -0.11682129 0.38204956 -0.18911743q0.17514038 -0.08734131 0.33129883 -0.08154297q0.093688965 0.003479004 0.17007446 0.05319214q0.076934814 0.034118652 0.121520996 0.09832764l0.46203613 0.6268921q-0.29232788 0.30187988 -0.6437378 0.507782q-0.3357849 0.20648193 -0.7156067 0.33312988q-0.37924194 0.11105347 -0.77130127 0.14343262q-0.37643433 0.032958984 -0.7355652 0.019683838q-0.7026367 -0.026031494 -1.3187561 -0.28338623q-0.6004944 -0.2567749 -1.0369568 -0.7263489q-0.4359131 -0.4852295 -0.6765442 -1.1820984q-0.2250061 -0.69628906 -0.1928711 -1.5863342q0.025360107 -0.70266724 0.2659607 -1.3035583q0.2567749 -0.6159363 0.69470215 -1.0531616q0.43795776 -0.43719482 1.056488 -0.68011475q0.6185608 -0.2428894 1.3836365 -0.21456909zm-0.011047363 1.1722717q-0.7182617 -0.026611328 -1.1388855 0.36434937q-0.4206543 0.3909607 -0.55700684 1.1364136l3.0916443 0.114471436q0.01184082 -0.32791138 -0.07171631 -0.61242676q-0.06790161 -0.28396606 -0.24795532 -0.49389648q-0.16384888 -0.22497559 -0.44039917 -0.36029053q-0.2609253 -0.13476562 -0.63568115 -0.1486206zm8.311707 0.57354736q-0.06640625 0.10699463 -0.1461792 0.15093994q-0.07922363 0.02835083 -0.18847656 0.024291992q-0.124938965 -0.004638672 -0.26324463 -0.07229614q-0.12261963 -0.06707764 -0.30718994 -0.15209961q-0.16833496 -0.10003662 -0.4003296 -0.1711731q-0.2157898 -0.08615112 -0.54367065 -0.09829712q-0.4840393 -0.017913818 -0.77301025 0.1902771q-0.2727661 0.19317627 -0.28460693 0.52108765q-0.007904053 0.21859741 0.12698364 0.37994385q0.13546753 0.14575195 0.36517334 0.2793274q0.23025513 0.11798096 0.5235596 0.22265625q0.30944824 0.08963013 0.61779785 0.21051025q0.3083496 0.12084961 0.59991455 0.27236938q0.29162598 0.15151978 0.51849365 0.3631897q0.22686768 0.21166992 0.35668945 0.5135498q0.14544678 0.30245972 0.13079834 0.70843506q-0.018066406 0.49969482 -0.22064209 0.91433716q-0.18640137 0.3996277 -0.55682373 0.6986389q-0.35424805 0.28396606 -0.8757019 0.4366455q-0.5058594 0.15325928 -1.1616821 0.12896729q-0.35910034 -0.0132751465 -0.7003784 -0.08847046q-0.32565308 -0.07458496 -0.63397217 -0.19546509q-0.30776978 -0.13647461 -0.56814575 -0.28683472q-0.24420166 -0.16540527 -0.44039917 -0.36029053l0.39727783 -0.6107178q0.08203125 -0.106414795 0.17797852 -0.16540527q0.11154175 -0.058410645 0.2677002 -0.052642822q0.14050293 0.005218506 0.27764893 0.10409546q0.13772583 0.08328247 0.305542 0.19894409q0.18399048 0.10064697 0.41479492 0.20300293q0.24700928 0.08731079 0.62176514 0.10119629q0.29666138 0.010986328 0.5019226 -0.04397583q0.20581055 -0.07055664 0.35028076 -0.1746521q0.14447021 -0.10409546 0.21255493 -0.25793457q0.068115234 -0.15383911 0.07373047 -0.30999756q0.008483887 -0.23422241 -0.12643433 -0.39556885q-0.1348877 -0.16134644 -0.38076782 -0.27990723q-0.23025513 -0.11795044 -0.5235596 -0.22262573q-0.29327393 -0.10467529 -0.61779785 -0.21051025q-0.3083191 -0.12088013 -0.61553955 -0.27297974q-0.29104614 -0.16711426 -0.5173645 -0.39440918q-0.22631836 -0.2272644 -0.3555603 -0.5447693q-0.12869263 -0.33312988 -0.112335205 -0.7859497q0.0152282715 -0.42160034 0.184906 -0.79055786q0.18527222 -0.3684082 0.50772095 -0.63790894q0.33862305 -0.2845459 0.8282776 -0.42276q0.4902649 -0.15383911 1.1304321 -0.13015747q0.70266724 0.026031494 1.2719421 0.28164673q0.5698242 0.23999023 0.94610596 0.6448059l-0.3961792 0.5794983z" fill-rule="nonzero"/><path fill="#000000" fill-opacity="0.0" d="m594.683 334.6682l97.51178 -30.362213l10.141724 32.503937l-97.51178 30.362213z" fill-rule="evenodd"/><path fill="#000000" d="m647.5014 339.5584q0.50720215 -0.15792847 0.8439331 -0.44277954q0.33666992 -0.28485107 0.512146 -0.66677856q0.17541504 -0.3819275 0.19433594 -0.8460388q0.014221191 -0.4790039 -0.14868164 -1.0010681l-1.7219849 -5.5188293l1.7007446 -0.52957153l1.7219238 5.51886q0.25598145 0.82037354 0.20617676 1.605011q-0.03955078 0.7651062 -0.3885498 1.4301758q-0.3340454 0.6604309 -0.94677734 1.1621704q-0.61279297 0.501709 -1.5078735 0.780426q-0.880188 0.27407837 -1.6697998 0.20898438q-0.7896118 -0.06506348 -1.4550781 -0.41427612q-0.6505127 -0.35385132 -1.1331177 -0.95635986q-0.47235107 -0.6220703 -0.7283325 -1.4424438l-1.7219849 -5.51886l1.7156372 -0.5341797l1.7173462 5.503937q0.1675415 0.5369568 0.43676758 0.92770386q0.27947998 0.3711853 0.6411133 0.585907q0.36157227 0.21469116 0.8006592 0.2579956q0.4390869 0.043304443 0.9313965 -0.10998535zm7.921631 -0.9446411l-1.7156372 0.5342102l-2.87146 -9.203064l1.7156372 -0.5341797l2.87146 9.203033z" fill-rule="nonzero"/></g></svg>